<svg width="20" height="24" viewBox="0 0 20 24" fill="none" xmlns="http://www.w3.org/2000/svg">
<path fill-rule="evenodd" clip-rule="evenodd" d="M6.51428 1.11976C5.82334 1.78078 5.78731 1.842 5.93235 2.10907C6.04116 2.30953 7.09697 3.2693 7.23675 3.29479C7.39546 3.32378 7.62916 3.23137 7.69508 3.11347C7.80304 2.92052 7.75611 2.754 7.52791 2.52064L7.31005 2.29784L11.9091 2.2964C15.4503 2.29532 16.5254 2.28238 16.5828 2.24022C16.789 2.08871 16.8201 1.82299 16.6532 1.6374L16.5399 1.51128L11.9515 1.49937L7.36314 1.48751L7.55445 1.27959C7.69893 1.12255 7.74577 1.03382 7.74577 0.917189C7.74577 0.707561 7.53228 0.5 7.31662 0.5C7.18079 0.5 7.08405 0.574745 6.51428 1.11976ZM2.13899 2.22588C1.60389 2.44054 1.31992 2.69714 1.09318 3.17087C0.933907 3.50374 0.893032 3.98583 0.995597 4.32266C1.03666 4.45736 1.93724 6.56897 2.99691 9.01502C4.05662 11.4611 4.91581 13.4699 4.90623 13.4791C4.89669 13.4882 4.80728 13.4559 4.70758 13.4072C4.28402 13.2005 3.84656 13.1078 3.30582 13.1103C2.73291 13.1129 2.56245 13.1617 2.27115 13.4064C1.57622 13.9901 1.82974 15.0808 2.92606 16.2236C3.27975 16.5924 3.52007 16.8986 4.28985 17.9615C5.42225 19.5252 6.20457 20.3514 7.22627 21.0628C8.54379 21.9801 9.11323 22.4059 9.64052 22.868C10.353 23.4923 10.4477 23.5473 10.6884 23.4758C10.7884 23.446 12.5914 22.7388 14.6951 21.9041C17.7668 20.6854 18.5385 20.3628 18.614 20.266C18.7057 20.1486 18.7061 20.1343 18.6327 19.7052C18.5912 19.4631 18.5452 19.184 18.5304 19.0852C18.5157 18.9863 18.483 18.1779 18.4579 17.2888C18.3954 15.0815 18.3237 14.4874 18.0121 13.598C17.8299 13.0782 15.4082 7.47256 15.2843 7.28406C15.2265 7.19601 15.0702 7.03025 14.937 6.91568C14.2371 6.31372 13.1613 6.365 12.4794 7.03285C12.3409 7.16855 12.2825 7.20158 12.2654 7.15403C12.2128 7.00746 11.7935 6.6394 11.5287 6.50726C11.2645 6.37538 11.2139 6.36617 10.7527 6.36581C10.315 6.3655 10.229 6.37907 9.98989 6.48627C9.84171 6.55274 9.61802 6.70502 9.4929 6.82475L9.26536 7.04238L9.1105 6.8275C8.93817 6.58834 8.49882 6.28455 8.19944 6.19749C8.09204 6.16625 7.82245 6.14117 7.60036 6.14166C7.23013 6.14256 7.16717 6.15654 6.8435 6.30954C6.62634 6.41224 6.4152 6.55458 6.29482 6.67953C6.10553 6.87599 6.09782 6.87932 6.0585 6.78134C5.88569 6.35062 4.5157 3.21829 4.42507 3.04673C4.26213 2.73827 3.93959 2.44904 3.57368 2.28323C3.30423 2.16111 3.19786 2.13878 2.83599 2.12826C2.4752 2.11774 2.37292 2.13208 2.13899 2.22588ZM3.21186 3.0123C3.31522 3.05806 3.45876 3.15559 3.53078 3.22903C3.62212 3.32216 4.13833 4.46293 5.23666 6.99892C7.40429 12.0039 7.2165 11.5932 7.37253 11.6704C7.44606 11.7067 7.55116 11.7365 7.60609 11.7365C7.75573 11.7365 7.98069 11.4994 7.98069 11.3416C7.98069 11.2689 7.68544 10.5281 7.32461 9.69532C6.96378 8.86256 6.65519 8.11318 6.63884 8.02998C6.58786 7.76988 6.72829 7.41539 6.96504 7.20661C7.36995 6.84956 7.88818 6.83986 8.30535 7.18145C8.50423 7.34428 8.46969 7.27296 9.48496 9.61725C9.97664 10.7526 10.0288 10.8517 10.1686 10.9155C10.453 11.0452 10.7527 10.8769 10.7527 10.5873C10.7527 10.4859 10.5848 10.0439 10.296 9.38501C9.86421 8.39993 9.83922 8.3255 9.8379 8.0214C9.83668 7.72862 9.84946 7.68444 9.98021 7.52991C10.2113 7.25677 10.3469 7.1823 10.6514 7.16122C10.9936 7.13753 11.2969 7.25304 11.4687 7.47252C11.5339 7.5558 11.8134 8.1476 12.0899 8.78759C12.3663 9.42762 12.6167 9.98832 12.6462 10.0335C12.7767 10.2334 13.1085 10.2493 13.2885 10.0645C13.4369 9.91209 13.4056 9.71474 13.1308 9.07075C12.8218 8.34649 12.8003 8.25556 12.8725 7.98099C12.9915 7.52901 13.5296 7.21093 13.9772 7.32806C14.2167 7.39071 14.4411 7.52564 14.5357 7.66381C14.5777 7.72516 14.9185 8.48964 15.293 9.36263C15.6675 10.2357 16.2241 11.5264 16.53 12.2309C17.1442 13.6457 17.3413 14.193 17.4483 14.7801C17.5326 15.2423 17.6108 16.551 17.613 17.5345C17.6144 18.1898 17.6573 18.9172 17.7308 19.5358L17.763 19.8066L16.9477 20.1285C16.4992 20.3054 14.9272 20.9291 13.4543 21.5144C11.9813 22.0996 10.7416 22.5881 10.6994 22.5999C10.6505 22.6135 10.4883 22.5034 10.253 22.2968C9.71208 21.8218 8.90485 21.2119 8.05116 20.633C7.52288 20.2747 7.13766 19.9689 6.75512 19.6042C6.09359 18.9734 5.83739 18.666 4.89533 17.3727C4.49291 16.8203 3.99178 16.174 3.78172 15.9366C3.16689 15.2417 2.9628 14.9678 2.83693 14.6687C2.64857 14.2211 2.68663 14.0305 2.98314 13.9369C3.20091 13.8681 3.67634 13.9102 4.06649 14.0328C4.47628 14.1616 4.88302 14.4276 5.30549 14.8433C5.61178 15.1447 5.69621 15.2627 5.84162 15.5925C6.03482 16.0305 6.17845 16.1861 6.3895 16.1861C6.57071 16.1861 6.8061 15.9712 6.8061 15.8057C6.8061 15.741 5.68263 13.0949 4.30954 9.92558C2.93644 6.75621 1.8031 4.08197 1.79108 3.98286C1.74282 3.58586 1.98493 3.1764 2.36573 3.01091C2.60779 2.90573 2.97262 2.90632 3.21186 3.0123ZM17.3268 3.05846C17.1194 3.25694 17.1398 3.41951 17.4067 3.69242L17.6239 3.91459L13.0096 3.92646L8.39537 3.93837L8.28199 4.06449C8.12521 4.23888 8.13381 4.42886 8.30596 4.59355L8.44329 4.72492H13.0342H17.6252L17.4073 4.94772C17.2319 5.1271 17.1895 5.20198 17.1895 5.33183C17.1895 5.56168 17.3586 5.71373 17.6141 5.71373C17.7985 5.71373 17.8363 5.6874 18.3726 5.18562C19.2823 4.33443 19.2812 4.36985 18.4209 3.54684C17.8512 3.00183 17.7544 2.92708 17.6186 2.92708C17.5105 2.92708 17.4229 2.96655 17.3268 3.05846Z" fill="black"/>
</svg>
