<svg width="11" height="17" viewBox="0 0 11 17" fill="none" xmlns="http://www.w3.org/2000/svg">
<path fill-rule="evenodd" clip-rule="evenodd" d="M5.80493 16.9494C5.93785 16.9001 10.2429 12.2945 10.419 12.0132C10.5418 11.817 10.5216 11.3656 10.3814 11.1738C10.1579 10.8682 9.72539 10.7526 9.39642 10.9106C9.30802 10.953 8.5869 11.6897 7.77753 12.5644L6.3181 14.1417L6.29331 5.39109C6.26857 -3.3493 6.26842 1.19984 6.16628 1.06145C5.97202 0.798103 5.81355 0.715959 5.5 0.715959C5.18645 0.715959 5.02798 0.798103 4.83372 1.06145C4.73158 1.19984 4.73144 -3.3493 4.70669 5.39109L4.6819 14.1417L3.22247 12.5644C2.4131 11.6897 1.69198 10.953 1.60358 10.9106C1.27461 10.7526 0.842105 10.8682 0.61864 11.1738C0.478424 11.3656 0.458194 11.817 0.581008 12.0132C0.63287 12.096 1.66223 13.2291 2.8686 14.5313C4.35858 16.1396 5.11068 16.916 5.21401 16.9524C5.39672 17.0169 5.62613 17.0158 5.80493 16.9494Z" fill="#824813"/>
</svg>
