<svg width="65" height="64" viewBox="0 0 65 64" fill="none" xmlns="http://www.w3.org/2000/svg">
<path fill-rule="evenodd" clip-rule="evenodd" d="M25.0738 0.120018C21.1143 0.784505 17.8734 3.54671 16.6105 7.33312C16.0799 8.92356 15.9418 10.5383 16.0067 14.3825C16.0582 17.4171 16.0766 17.6186 16.3815 18.4769C16.5579 18.9735 16.9976 19.8132 17.3587 20.343C18.3327 21.7725 18.4668 22.2648 18.6075 24.9304C18.732 27.2915 18.9079 28.373 19.4458 30.088C20.1621 32.3714 21.1753 34.0656 22.7338 35.586L23.7485 36.5758L23.7127 37.7137L23.677 38.8517L21.8622 39.4999C14.1375 42.2588 6.08361 45.2284 5.54804 45.5152C4.15085 46.2635 2.70272 48.0728 2.16615 49.7408C1.80831 50.853 0.433657 59.5584 0.502497 60.2764C0.629536 61.6012 1.56588 62.9034 2.80824 63.4827L3.40075 63.759H32.501H61.6012L62.1937 63.4827C63.4143 62.9135 64.3743 61.5834 64.4975 60.2914C64.5668 59.5621 63.1999 50.8784 62.8367 49.7408C62.2932 48.0395 60.8231 46.2394 59.3475 45.4691C58.641 45.1002 56.8953 44.4547 46.2062 40.6104C43.7969 39.7438 41.6989 38.9808 41.5439 38.9147C41.2802 38.8022 41.2623 38.7193 41.2623 37.6117V36.429L42.3003 35.3874C44.5095 33.1706 45.6345 30.5885 46.3286 26.1417C46.7118 23.6873 47.081 22.508 48.1265 20.3989L48.9598 18.7179L48.9982 14.1662C49.0413 9.08113 49.0258 8.95347 48.1704 7.31985C47.6231 6.2745 46.6945 5.29222 45.7498 4.75903L45.0526 4.36565L45.0421 3.62994C45.0186 1.97054 44.0381 0.784129 42.2212 0.217019C41.5442 0.00561991 40.9079 -0.0100254 33.585 0.00361733C29.237 0.0116277 25.407 0.0640707 25.0738 0.120018ZM41.6764 2.31549C42.347 2.54404 42.8894 3.11365 42.8894 3.58939C42.8894 3.76925 42.823 4.23811 42.7417 4.63124C42.5466 5.57584 42.7245 5.85733 43.7532 6.23244C45.1705 6.74911 46.1598 7.74941 46.6295 9.14046C46.8764 9.87128 46.8946 10.1857 46.8946 13.7123C46.8946 16.2934 46.8451 17.7104 46.7389 18.1625C46.5837 18.8235 46.583 18.82 46.5114 17.1361C46.4566 15.8448 46.3752 15.2704 46.1667 14.7003C45.638 13.2552 44.5584 11.9467 43.2464 11.1612C42.8742 10.9384 41.1914 10.2644 39.5067 9.66351L36.4436 8.57097L35.192 8.57122C33.9673 8.57135 33.8987 8.58724 32.0003 9.31031L30.0603 10.0491L26.8687 10.125C23.9466 10.1946 23.6163 10.225 22.9591 10.4852C20.2483 11.5586 18.5112 14.0577 18.4703 16.9433C18.4614 17.5753 18.4295 17.736 18.3576 17.5116C18.3026 17.3395 18.2526 15.4808 18.2467 13.3812C18.2347 9.04183 18.2933 8.60915 19.1271 6.88404C19.5339 6.04232 19.8527 5.61276 20.7177 4.74038C21.6381 3.81205 21.977 3.56411 22.9886 3.07873C24.0252 2.58133 24.6414 2.4006 25.9925 2.19771C26.1646 2.1718 29.6325 2.14302 33.699 2.13363C40.1575 2.11873 41.1665 2.14176 41.6764 2.31549ZM38.5999 11.707C40.0987 12.232 41.5944 12.7971 41.9237 12.963C42.6694 13.3387 43.436 14.1175 43.8711 14.9415L44.2036 15.5715L44.2407 20.3903C44.2807 25.6182 44.1978 26.6643 43.5708 28.8265C42.7869 31.5306 41.3501 33.6793 39.5101 34.8992C39.2003 35.1046 38.4681 35.6722 37.8829 36.1607C36.1868 37.5767 34.9386 38.1956 33.3279 38.4197C31.9748 38.6079 30.9234 38.4172 29.5443 37.7331C28.1795 37.0564 24.4652 34.3887 23.732 33.5587C22.5956 32.2723 21.6374 30.2114 21.0717 27.8374C20.8185 26.7753 20.8031 26.3967 20.8007 21.2038L20.7983 15.6967L21.1347 14.9788C21.5443 14.1049 22.459 13.1642 23.3015 12.75C23.9003 12.4558 24.0628 12.4394 27.0564 12.369C30.4731 12.2887 30.2613 12.3263 32.939 11.3244C35.0913 10.5191 35.2354 10.5289 38.5999 11.707ZM39.1346 38.5167V38.9952L35.821 41.21L32.5074 43.4249L29.1874 41.212C25.949 39.0535 25.8674 38.9889 25.8674 38.5812C25.8674 38.3513 25.8938 38.1633 25.9261 38.1633C25.9584 38.1633 26.421 38.4481 26.9542 38.7962C28.153 39.5787 29.5196 40.2349 30.4616 40.4803C31.3947 40.7234 33.2815 40.7179 34.4163 40.4689C35.5002 40.231 37.5827 39.2399 38.4462 38.5507C38.7904 38.276 39.0861 38.0483 39.1033 38.0447C39.1204 38.041 39.1346 38.2534 39.1346 38.5167ZM27.8074 42.9599C29.4595 44.0581 30.8317 44.9739 30.8566 44.9951C30.9158 45.0454 27.0938 50.3041 26.998 50.3041C26.9045 50.3041 22.3003 41.9357 22.3003 41.7659C22.3003 41.6098 24.5051 40.8036 24.6783 40.8964C24.7472 40.9333 26.1553 41.8619 27.8074 42.9599ZM42.7017 41.7668C42.7017 41.9787 38.0826 50.3081 37.9841 50.2738C37.8783 50.2369 34.2535 45.324 34.1809 45.1193C34.1547 45.0452 35.5447 44.048 37.2697 42.9031L40.4061 40.8217L41.5538 41.2314C42.1852 41.4569 42.7017 41.6978 42.7017 41.7668ZM17.174 45.5435C16.5052 46.8899 15.9796 48.1056 15.9796 48.3056C15.9796 48.5027 16.1149 48.8205 16.2813 49.0141C16.578 49.3593 16.61 49.3661 18.1555 49.4068L19.7278 49.4482L19.3557 50.1854C18.6311 51.6208 18.2745 51.1525 24.2716 56.6437C27.1801 59.3067 29.5784 61.5325 29.6013 61.5898C29.662 61.741 4.50093 61.7226 3.97262 61.5712C3.43179 61.4161 2.88233 60.8948 2.71036 60.3736C2.50497 59.7512 4.06073 50.5987 4.52909 49.6745C4.941 48.8618 5.84217 47.8843 6.57612 47.4541C7.05574 47.173 18.232 43.047 18.3317 43.1141C18.3519 43.1278 17.831 44.2209 17.174 45.5435ZM52.5269 45.1936C55.3838 46.2265 57.9893 47.2168 58.3171 47.3943C58.6447 47.5718 59.197 48.0172 59.5442 48.3843C60.6108 49.5122 60.7369 49.9245 61.6231 55.1818C62.0743 57.8586 62.3827 60.0311 62.3403 60.2324C62.2313 60.7485 61.5874 61.4182 61.059 61.5649C60.4995 61.7204 35.338 61.7455 35.4006 61.5906C35.4235 61.5337 37.4699 59.6388 39.9481 57.3794C46.0211 51.8427 46.0185 51.8453 46.0185 51.3367C46.0185 51.109 45.851 50.5909 45.6463 50.1854L45.2742 49.4482L46.8464 49.4068C48.3919 49.3661 48.424 49.3593 48.7206 49.0141C48.8871 48.8205 49.0224 48.5027 49.0224 48.3056C49.0224 48.1057 48.4987 46.8939 47.8333 45.5544C47.1794 44.2378 46.6443 43.1359 46.6443 43.1057C46.6443 43.0756 46.7993 43.1104 46.9885 43.1832C47.1777 43.2559 49.6701 44.1607 52.5269 45.1936ZM24.1754 49.8034C26.084 53.2798 27.8169 56.4339 28.0264 56.8125L28.4072 57.5009L27.7944 56.928C27.4573 56.613 25.8731 55.1595 24.2739 53.6981L21.3663 51.041L21.9897 49.7987C22.3327 49.1154 22.6132 48.4384 22.6132 48.2941C22.6132 48.1499 22.4486 47.8673 22.2473 47.666C21.8833 47.3021 21.8737 47.3002 20.3699 47.3002C19.4546 47.3002 18.8583 47.2512 18.8583 47.1761C18.8583 47.0505 20.646 43.4098 20.6844 43.4571C20.6958 43.4712 22.2668 46.327 24.1754 49.8034ZM46.1371 47.1437C46.142 47.2606 45.7614 47.3002 44.6321 47.3002C43.1283 47.3002 43.1186 47.3021 42.7546 47.666C42.5534 47.8673 42.3888 48.1499 42.3888 48.2941C42.3888 48.4384 42.6699 49.1165 43.0135 49.8012L43.6382 51.0459L40.6667 53.7622C39.0323 55.256 37.4498 56.7084 37.1499 56.9896L36.6045 57.5009L37.1499 56.4951C37.4498 55.942 39.1878 52.775 41.012 49.4576L44.3288 43.4258L45.2297 45.2065C45.7251 46.186 46.1335 47.0577 46.1371 47.1437ZM33.672 48.2681C33.7267 48.359 33.5568 48.7287 33.2581 49.1686C32.9638 49.6018 32.7513 50.0621 32.7512 50.2659C32.751 50.459 33.0118 52.2561 33.3304 54.2596L33.9098 57.902L33.2367 59.1094C32.8664 59.7735 32.5354 60.3168 32.501 60.3168C32.4666 60.3168 32.1395 59.7806 31.7742 59.1253L31.1099 57.9338L31.6803 54.3554C31.9939 52.3873 32.2507 50.567 32.2507 50.3106C32.2507 49.9653 32.1187 49.6599 31.7422 49.1343L31.234 48.4244L31.5148 48.0187C31.6693 47.7956 31.9609 47.3996 32.1629 47.1386L32.53 46.6642L33.0546 47.3889C33.3431 47.7876 33.6209 48.1832 33.672 48.2681ZM30.0246 50.4605C30.0912 50.6548 29.4749 54.6854 29.3791 54.683C29.2869 54.6806 28.2455 52.7406 28.2455 52.5715C28.2455 52.4083 29.7669 50.3041 29.885 50.3041C29.9323 50.3041 29.9951 50.3745 30.0246 50.4605ZM35.9822 51.3658C36.4082 51.9497 36.7549 52.4989 36.7527 52.5862C36.7457 52.8868 35.6446 54.7438 35.5847 54.556C35.487 54.2491 35.0042 50.9877 35.0042 50.6341C35.0042 50.4526 35.0502 50.3041 35.1061 50.3041C35.1622 50.3041 35.5564 50.7818 35.9822 51.3658Z" fill="url(#paint0_linear_4031_654)"/>
<defs>
<linearGradient id="paint0_linear_4031_654" x1="0.5" y1="14.3972" x2="29.9259" y2="69.7863" gradientUnits="userSpaceOnUse">
<stop stop-color="#FFAD62"/>
<stop offset="1" stop-color="#FFC188"/>
</linearGradient>
</defs>
</svg>
