<svg width="65" height="64" viewBox="0 0 65 64" fill="none" xmlns="http://www.w3.org/2000/svg">
<path fill-rule="evenodd" clip-rule="evenodd" d="M22.5161 0.116634C16.274 0.818374 10.322 3.98734 6.36821 8.71414C2.39356 13.4658 0.310477 19.3594 0.547017 25.1838C0.630576 27.2393 0.92328 28.7441 1.92198 32.2512C2.86063 35.5475 2.98747 36.1233 3.07878 37.5049C3.23827 39.9174 2.71916 42.2601 1.48092 44.7144C0.783558 46.0967 0.721139 46.2851 0.781806 46.8239C0.818457 47.1492 0.957179 47.5638 1.09002 47.745C1.5656 48.3943 3.63092 49.2991 5.53025 49.69C6.63752 49.918 8.86395 49.9508 9.95308 49.7553C11.7488 49.4328 13.7292 48.6311 15.022 47.7031L15.596 47.2911L17.211 47.8304C23.4271 49.9064 29.9024 49.4386 35.8313 46.4853C48.0267 40.4104 53.0779 26.1451 47.2844 14.1402C43.5169 6.3336 36.1501 1.08731 27.5821 0.109254C26.2802 -0.03935 23.8723 -0.0358475 22.5161 0.116634ZM27.9574 3.99372C31.3982 4.44666 35.1165 6.0514 37.9412 8.3026C45.6137 14.4172 48.0217 24.6947 43.8351 33.4584C41.9777 37.3464 38.286 41.06 34.2863 43.064C32.7528 43.8323 31.0648 44.4339 29.3334 44.8296C28.0875 45.1143 27.4452 45.1827 25.5547 45.2316C22.2283 45.3178 20.1429 44.9509 17.1527 43.7537C16.3011 43.4127 15.4691 43.1338 15.3037 43.1338C14.8394 43.1338 14.2626 43.4314 13.5149 44.0567C11.658 45.6099 9.09398 46.3533 6.74685 46.0191C6.15756 45.9351 5.60355 45.822 5.51574 45.7677C5.39265 45.6917 5.4627 45.3859 5.82145 44.4327C6.0775 43.7527 6.42587 42.5209 6.59561 41.6953C6.87644 40.3301 6.89883 39.9905 6.84316 37.9427C6.77512 35.44 6.72846 35.1997 5.45082 30.7794C4.54631 27.65 4.35843 26.5719 4.3558 24.4958C4.35142 21.1358 4.99525 18.406 6.51781 15.3288C9.69766 8.90202 16.0895 4.53922 23.3169 3.86237C24.5313 3.74867 26.5248 3.80508 27.9574 3.99372ZM13.3222 21.7298C12.6819 21.8958 12.1764 22.2172 11.7234 22.7466C10.5474 24.1204 10.887 26.2216 12.4401 27.1819C12.9821 27.5169 13.1624 27.5604 14.0102 27.5604C14.8579 27.5604 15.0383 27.5169 15.5803 27.1819C17.9908 25.6915 17.132 21.9825 14.3097 21.6949C13.973 21.6605 13.5286 21.6763 13.3222 21.7298ZM24.2762 21.7645C23.498 21.988 22.8094 22.5688 22.4488 23.3059C22.1587 23.8987 22.1193 24.1133 22.1617 24.8647C22.2024 25.5839 22.2763 25.8288 22.5859 26.2694C23.1902 27.1291 23.8801 27.5398 24.8205 27.5997C25.8089 27.6626 26.4061 27.474 27.0446 26.8972C27.982 26.0504 28.3014 24.9724 27.9614 23.8028C27.5091 22.2472 25.8298 21.3183 24.2762 21.7645ZM35.2337 21.8148C33.5492 22.3519 32.7037 24.401 33.5162 25.9771C34.4634 27.8146 36.8321 28.1992 38.2806 26.7509C38.9018 26.1295 39.1527 25.5025 39.1527 24.5711C39.1527 22.6248 37.1377 21.2077 35.2337 21.8148ZM56.5905 22.3573C55.8525 22.6924 55.4939 23.3231 55.5635 24.1635C55.6106 24.7304 55.7179 24.9486 56.3754 25.8133C59.5641 30.008 61.0275 34.8898 60.6579 40.0999C60.5064 42.2372 60.2503 43.4089 59.3527 46.0733C58.3725 48.9829 58.1492 50.1594 58.1422 52.4528C58.1351 54.8048 58.4727 56.627 59.3077 58.7417C59.5053 59.2423 59.667 59.699 59.667 59.7565C59.667 59.9934 58.1515 60.1758 56.703 60.1131C54.464 60.0163 53.0664 59.4335 50.9324 57.7067C50.1785 57.0967 49.6722 57.1157 47.946 57.8189C46.4554 58.4262 45.2938 58.7692 43.5933 59.1043C42.0263 59.413 38.0716 59.4143 36.4128 59.1064C32.9349 58.4611 29.9616 57.1571 27.1839 55.0591C25.7494 53.9756 25.3691 53.8207 24.631 54.0195C23.3738 54.358 22.8582 55.6628 23.5044 56.8703C23.842 57.5011 26.6851 59.4791 28.7347 60.509C32.3692 62.3356 35.8607 63.1539 40.0351 63.1576C43.0473 63.1604 45.7037 62.714 48.3307 61.7634L49.3814 61.3832L50.2805 61.9648C54.0681 64.415 58.8921 64.6721 62.7942 62.6315C63.885 62.0611 64.1894 61.7039 64.2663 60.9038C64.3159 60.387 64.2325 60.1417 63.4956 58.64C61.6504 54.88 61.4458 51.6262 62.8115 47.762C64.1164 44.0694 64.4794 42.0587 64.471 38.5681C64.4628 35.1079 63.9713 32.4561 62.7811 29.4492C61.5986 26.4618 59.3202 22.9274 58.2203 22.3747C57.5955 22.0607 57.2516 22.057 56.5905 22.3573Z" fill="url(#paint0_linear_4031_646)"/>
<defs>
<linearGradient id="paint0_linear_4031_646" x1="0.528869" y1="14.4516" x2="30.1432" y2="69.9354" gradientUnits="userSpaceOnUse">
<stop stop-color="#FFAD62"/>
<stop offset="1" stop-color="#FFC188"/>
</linearGradient>
</defs>
</svg>
