<svg width="65" height="62" viewBox="0 0 65 62" fill="none" xmlns="http://www.w3.org/2000/svg">
<path fill-rule="evenodd" clip-rule="evenodd" d="M30.526 0.095672C25.8066 0.550089 21.4501 2.63315 17.9964 6.08672C14.0083 10.0749 11.9778 14.9511 11.9778 20.5403C11.9778 25.9614 15.0015 32.2451 21.9141 41.1896L23.2825 42.9602L16.1676 43.0228C9.06313 43.0853 9.05198 43.0858 8.60057 43.3666C8.35196 43.5212 8.00645 43.8592 7.83282 44.1177C7.65919 44.3762 5.95982 47.5343 4.0564 51.136C1.71522 55.5662 0.572538 57.8543 0.523842 58.2101C0.41706 58.9886 0.670557 59.7408 1.25229 60.3719C2.18203 61.3805 -0.545478 61.2996 32.5246 61.2996C65.0107 61.2996 62.8329 61.3536 63.6773 60.528C64.3161 59.9036 64.5006 59.4588 64.5 58.5456L64.4995 57.7319L61.0154 51.1597C59.0991 47.5451 57.3893 44.3762 57.2158 44.1177C57.0424 43.8592 56.6972 43.5212 56.4486 43.3666C55.9973 43.0858 55.9857 43.0853 48.8901 43.0228L41.7837 42.9602L43.23 41.0825C49.4433 33.0165 52.6683 26.6885 53.0314 21.8509C53.7097 12.8137 47.9913 4.18542 39.3242 1.16875C36.4477 0.167402 33.5066 -0.191249 30.526 0.095672ZM34.2465 2.08897C36.7748 2.35524 38.7471 2.93396 40.9493 4.05573C45.7714 6.51184 49.1978 10.8081 50.5461 16.089C52.4789 23.6588 49.4865 30.3333 37.6568 44.838C36.4777 46.2838 34.8445 48.2968 34.0276 49.311L32.5423 51.1554L29.3038 47.1829C24.7409 41.5859 24.2444 40.9615 22.5147 38.6451C17.9658 32.5531 15.282 27.6644 14.3637 23.798C13.1485 18.6811 14.7635 12.7247 18.5488 8.36293C22.403 3.92191 28.503 1.48383 34.2465 2.08897ZM30.7094 8.05373C26.7317 8.68578 23.2757 11.1304 21.3731 14.6578C17.8199 21.2452 20.8939 29.5832 27.8991 32.3589C29.4687 32.9808 30.6395 33.1916 32.5246 33.1916C36.2065 33.1916 39.2676 31.8647 41.7791 29.1797C46.375 24.2666 46.2736 16.5641 41.5498 11.7652C40.4135 10.6107 39.3543 9.85925 37.8889 9.16761C36.1314 8.33802 34.9316 8.06725 32.8375 8.02744C31.8736 8.00904 30.916 8.0208 30.7094 8.05373ZM34.5702 10.1543C37.8608 10.7839 40.6454 12.9596 42.1108 16.0457C42.9247 17.76 43.0891 18.512 43.0953 20.5523C43.1011 22.4068 42.9703 23.1372 42.363 24.6406C39.901 30.7359 32.2563 33.126 26.763 29.5177C22.1891 26.5134 20.6047 20.8044 22.9938 15.9374C24.2099 13.4602 26.1189 11.6963 28.6933 10.6711C30.3962 9.99295 32.6782 9.79228 34.5702 10.1543ZM17.2521 45.1244C17.2521 45.1787 17.064 45.7842 16.8342 46.4701L16.416 47.7172L12.3275 47.7502C9.39586 47.7739 8.23892 47.7439 8.23892 47.6443C8.23892 47.5051 9.29947 45.4765 9.52606 45.1822C9.61782 45.0632 10.5548 45.0257 13.4493 45.0257C15.5409 45.0257 17.2521 45.0702 17.2521 45.1244ZM26.2634 46.6218C26.9824 47.4996 28.4953 49.3727 29.6252 50.7842C30.7551 52.1956 31.7678 53.4209 31.8756 53.5069C32.1628 53.7362 32.9568 53.6999 33.2429 53.4444C33.3777 53.3239 34.098 52.4508 34.8433 51.504L36.1987 49.7827L47.0991 49.784L57.9995 49.7852L58.5941 50.8969C58.9212 51.5083 59.1887 52.0428 59.1887 52.0849C59.1887 52.1268 54.268 52.1612 48.2538 52.1612C40.5736 52.1612 37.2004 52.2025 36.9209 52.2999C36.3979 52.4823 36.1158 53.0135 36.2848 53.4982C36.3579 53.7076 37.331 54.7225 38.6295 55.9436C39.8503 57.0917 41.1288 58.3158 41.4704 58.6639L42.0917 59.2967L39.2171 59.2936L36.3427 59.2903L30.5982 53.8481C25.1507 48.6871 24.8298 48.4057 24.3897 48.4057C24.0996 48.4057 23.8482 48.4913 23.719 48.634C23.6053 48.7597 22.7158 51.2102 21.7422 54.0795L19.9723 59.2967H17.3603C15.3269 59.2967 14.7485 59.2614 14.7485 59.1371C14.7485 59.0493 15.171 57.7129 15.6873 56.1671C16.2037 54.6213 16.6262 53.2598 16.6262 53.1415C16.6262 53.0231 16.4903 52.7682 16.3242 52.5751L16.0222 52.2238L10.9413 52.1871C8.14678 52.167 5.86042 52.1185 5.86042 52.0795C5.86042 52.0404 6.12807 51.51 6.45505 50.901L7.04967 49.7935L12.2631 49.7568C17.1452 49.7225 17.4929 49.7054 17.7342 49.4868C17.8907 49.3451 18.2686 48.4232 18.6965 47.1396L19.401 45.0257H22.1786H24.9561L26.2634 46.6218ZM56.146 46.2776C56.5071 46.9317 56.8043 47.5373 56.8065 47.6233C56.8095 47.7471 54.8483 47.7798 47.408 47.7798C39.4659 47.7798 38.0161 47.753 38.0722 47.607C38.1086 47.512 38.5776 46.892 39.1144 46.2291L40.0904 45.0239L47.79 45.056L55.4894 45.0883L56.146 46.2776ZM29.3222 55.3971C31.4621 57.4178 33.2319 59.1219 33.2548 59.1839C33.2792 59.2497 30.9688 59.2967 27.702 59.2967C23.279 59.2967 22.1197 59.2639 22.1655 59.1402C22.1973 59.0542 22.8075 57.2254 23.5215 55.0764L24.8196 51.1691L25.1255 51.446C25.2937 51.5984 27.1822 53.3764 29.3222 55.3971ZM14.1226 54.3231C14.1226 54.4105 13.7657 55.5513 13.3294 56.8581L12.5361 59.2341L7.81579 59.2669C4.72213 59.2884 3.01162 59.2548 2.85213 59.1694C2.71819 59.0978 2.57435 58.9027 2.53254 58.7361C2.45756 58.4372 2.62142 58.0893 4.25882 55.0717L4.7513 54.1642H9.43692C13.1412 54.1642 14.1226 54.1975 14.1226 54.3231ZM61.4575 56.2923C62.065 57.4283 62.5635 58.4565 62.5654 58.5769C62.5672 58.6974 62.456 58.9086 62.3183 59.0463C62.0728 59.2918 61.9011 59.2967 53.5721 59.2967H45.0762L42.4307 56.7824C40.9757 55.3995 39.7852 54.2443 39.7852 54.2154C39.7852 54.1864 44.413 54.1771 50.0691 54.1947L60.3529 54.2267L61.4575 56.2923Z" fill="url(#paint0_linear_4031_662)"/>
<defs>
<linearGradient id="paint0_linear_4031_662" x1="0.5" y1="13.8422" x2="28.1613" y2="67.9974" gradientUnits="userSpaceOnUse">
<stop stop-color="#FFAD62"/>
<stop offset="1" stop-color="#FFC188"/>
</linearGradient>
</defs>
</svg>
