<svg width="65" height="64" viewBox="0 0 65 64" fill="none" xmlns="http://www.w3.org/2000/svg">
<path fill-rule="evenodd" clip-rule="evenodd" d="M7.37911 0.149324C4.24937 0.846366 1.88108 2.97701 0.840704 6.03172L0.5 7.03231V20.728V34.4237L0.852711 35.4243C1.67433 37.7551 3.15033 39.4582 5.25284 40.5014C7.15323 41.4445 6.75436 41.4065 15.2831 41.458L22.9369 41.5044L22.9833 49.1582C23.0348 57.687 22.9968 57.2881 23.9399 59.1885C24.9831 61.291 26.6863 62.767 29.017 63.5886L30.0176 63.9413H43.7133H57.409L58.4096 63.6006C59.8072 63.1246 60.8746 62.4626 61.9044 61.4326C62.9417 60.3955 63.6043 59.3227 64.0632 57.9377C64.3717 57.0072 64.3986 56.7472 64.4475 54.2233L64.5 51.5093L64.1809 51.1902C63.7776 50.7868 63.3023 50.7823 62.9067 51.1781C62.6032 51.4815 62.5996 51.5116 62.5977 53.7734C62.5965 55.3697 62.539 56.3035 62.4074 56.8617C61.978 58.6828 60.6231 60.4387 58.9813 61.3014C57.3592 62.1539 57.9101 62.1239 43.8301 62.1259C35.3005 62.1271 30.8829 62.0836 30.3846 61.9932C28.0531 61.5705 25.8969 59.6384 25.1666 57.3176L24.8896 56.4368V43.304C24.8896 29.0257 24.8578 29.6911 25.6139 28.1255C26.3919 26.5147 28.1949 25.0686 30.0358 24.5792C30.5134 24.4521 33.4456 24.4177 43.7759 24.4177H56.9087L57.7895 24.6947C60.1103 25.4251 62.0424 27.5812 62.465 29.9127C62.5528 30.3968 62.5996 33.7367 62.5996 39.5179V48.3809L62.9067 48.6878C63.2997 49.0809 63.7777 49.0789 64.1739 48.6827L64.4861 48.3705L64.4497 38.9581L64.4132 29.5458L64.0605 28.5452C63.2389 26.2144 61.7629 24.5113 59.6604 23.468C57.76 22.5249 58.1588 22.563 49.6301 22.5114L41.9763 22.465L41.9299 14.8112C41.8784 6.28249 41.9164 6.68135 40.9733 4.78097C39.9301 2.67846 38.2269 1.20245 35.8962 0.380838L34.8956 0.028127L21.5126 0.00511328C10.7374 -0.0133978 7.98335 0.014744 7.37911 0.149324ZM34.5286 1.97629C36.824 2.39242 38.9676 4.28792 39.7412 6.58555C40.0127 7.39178 40.0187 7.5515 40.0584 14.9433L40.0988 22.479L35.6835 22.48C30.1114 22.4812 29.1811 22.6196 27.2796 23.7308C26.8097 24.0055 26.3894 24.2291 26.3453 24.2278C26.2788 24.226 25.4737 23.0977 25.3527 22.8368C25.3323 22.7926 26.3882 21.2448 27.6993 19.3972L30.0829 16.0377L31.3636 15.9665C32.4119 15.9084 32.7604 15.8357 33.2846 15.5662C34.4543 14.9649 35.0759 13.9351 35.0804 12.5914C35.0849 11.2343 34.4668 10.2587 33.159 9.55907C32.6623 9.29342 32.4956 9.28228 28.4229 9.24489L24.2017 9.20599V8.54797C24.2017 6.49324 22.5642 4.94657 20.5794 5.12655C19.6703 5.20897 18.9814 5.56369 18.3604 6.26923C17.7882 6.91925 17.5727 7.53199 17.5727 8.50845V9.20499L13.6641 9.24439C9.36217 9.28766 9.31077 9.29592 8.39384 10.101C6.88644 11.4246 6.89532 13.767 8.41298 15.1028C9.11828 15.7236 9.93164 15.9745 11.2479 15.9772L12.257 15.9793L14.5709 19.2499C15.8435 21.0487 16.9258 22.5885 16.9761 22.6717C17.0309 22.7626 16.6185 23.4508 15.9442 24.3939C14.7624 26.0469 14.6328 26.4071 15.0204 26.9605C15.1829 27.1926 15.3157 27.2381 15.7396 27.2072C16.2573 27.1695 16.2654 27.1611 17.6914 25.1682C18.7659 23.6666 19.1226 23.0733 19.12 22.7917C19.1174 22.5068 18.446 21.4686 16.3293 18.4767C14.7964 16.3097 13.4297 14.4382 13.2923 14.3179C13.0859 14.1373 12.7967 14.099 11.6363 14.099C10.3789 14.099 10.1854 14.0688 9.80531 13.813C8.96906 13.2503 8.93179 12.017 9.73314 11.4219C10.0715 11.1705 10.2697 11.157 14.5485 11.0919C17.003 11.0545 19.0279 11.0122 19.0487 10.9981C19.2663 10.8486 19.4488 9.92667 19.4488 8.97698C19.4488 7.92347 19.4715 7.82391 19.7928 7.46432C20.4435 6.73614 21.6988 6.87097 22.1358 7.7161C22.266 7.96787 22.3255 8.45266 22.3255 9.26052C22.3255 10.2625 22.3642 10.4873 22.5848 10.7677L22.844 11.0972H27.4125C31.3818 11.0972 32.0376 11.124 32.4119 11.3017C33.154 11.6538 33.4208 12.5724 33.0112 13.3646C32.7199 13.9278 32.1704 14.099 30.654 14.099C29.4692 14.099 29.3143 14.1261 29.0376 14.3805C28.487 14.8865 23.2011 22.4944 23.2011 22.7807C23.2011 22.9323 23.6014 23.6344 24.0909 24.3408L24.9806 25.6253L24.5833 26.1785C24.3648 26.4828 24.0058 27.1208 23.7855 27.5964L23.3851 28.4609L22.5891 27.3368C21.7264 26.1188 21.381 25.8807 20.8477 26.1362C20.6414 26.2352 19.5252 27.6934 17.8567 30.0441C16.3926 32.1067 15.063 33.9259 14.9019 34.087C14.2276 34.7613 13.0042 34.4578 12.6119 33.5188C12.345 32.8798 12.4809 32.5185 13.5541 31.0155C14.5263 29.6537 14.6344 29.2624 14.1739 28.7721C13.8494 28.4267 13.3223 28.3957 12.9725 28.7015C12.8347 28.822 12.2974 29.5275 11.7784 30.2695C10.6745 31.8471 10.4561 32.5294 10.6917 33.6641C10.9958 35.1291 12.4817 36.3623 13.9427 36.3623C14.5978 36.3623 15.587 35.9725 16.0941 35.5143C16.3734 35.2621 17.4205 33.9004 18.4212 32.4884C19.4218 31.0763 20.4518 29.6227 20.7101 29.2581L21.1796 28.5952L22.0653 29.8357L22.9509 31.0762V35.3515V39.6269L15.4152 39.5865C8.03025 39.547 7.86315 39.5406 7.06642 39.2705C4.7648 38.49 2.86254 36.3423 2.44816 34.0567C2.35774 33.5584 2.31421 29.1408 2.31546 20.6112C2.31746 6.53126 2.28744 7.08209 3.13995 5.46C3.98821 3.84578 5.75352 2.46796 7.52232 2.03983C8.12818 1.89312 10.4583 1.86072 21.0205 1.85209C29.6312 1.84509 34.028 1.88549 34.5286 1.97629ZM18.0048 14.4061C17.836 14.5749 17.6978 14.8487 17.6978 15.0145C17.6978 15.3634 20.2262 19.0176 20.7256 19.3904C21.3249 19.8378 21.6161 19.6047 23.1747 17.4285C23.9513 16.3443 24.6189 15.296 24.6583 15.099C24.7136 14.8226 24.6567 14.6679 24.4089 14.42L24.088 14.099H21.1999H18.3118L18.0048 14.4061ZM21.8219 16.069C21.82 16.1205 21.6653 16.3428 21.4779 16.5628L21.1373 16.9627L20.7946 16.469L20.4518 15.9752H21.1386C21.5162 15.9752 21.8237 16.0174 21.8219 16.069ZM42.4882 27.4688C41.7095 27.7378 41.0317 28.2525 40.5609 28.9323C40.3748 29.2009 38.0158 35.2179 35.3187 42.3034C30.8271 54.1026 30.4144 55.2504 30.4116 55.9499C30.4041 57.8002 31.8331 59.225 33.7073 59.236C34.8877 59.2429 35.9568 58.6832 36.5048 57.7715C36.6516 57.5272 37.1376 56.3672 37.5849 55.1936L38.3982 53.0598L43.6659 53.0272C47.7885 53.0017 48.9595 53.0289 49.0526 53.1523C49.1181 53.2391 49.498 54.1824 49.897 55.2486C50.7826 57.615 51.0724 58.139 51.7523 58.6036C52.5197 59.1278 53.1322 59.2923 54.0451 59.219C55.8795 59.0717 57.2712 57.4154 57.0574 55.6342C56.9587 54.8119 47.3226 29.3348 46.9015 28.7824C45.8855 27.4506 44.0892 26.9158 42.4882 27.4688ZM44.6633 29.3462C44.9562 29.4791 45.2858 29.7591 45.4331 30C45.6771 30.3994 54.9826 54.9363 55.1599 55.6485C55.3762 56.5163 54.6389 57.3735 53.6755 57.3744C52.8393 57.3753 52.5261 56.9119 51.4777 54.123C50.9734 52.7815 50.4539 51.5714 50.323 51.4339C50.0926 51.1913 49.8985 51.1826 43.9669 51.1479C38.9121 51.1184 37.7747 51.1429 37.4244 51.2893C37.0302 51.454 36.9544 51.5878 36.3427 53.2012C34.9094 56.9807 34.9558 56.8796 34.5388 57.1339C33.6926 57.6499 32.6457 57.2637 32.3345 56.3208C32.2172 55.9652 32.2425 55.7676 32.4985 55.0428C33.2338 52.9611 41.8777 30.3833 42.0685 30.0461C42.3169 29.6069 43.2272 29.1069 43.7711 29.1108C43.9801 29.1123 44.3816 29.2182 44.6633 29.3462ZM43.3201 35.5514C43.1382 35.6502 42.9329 35.8872 42.8638 36.0779C42.7948 36.2688 41.832 38.8006 40.7243 41.704C39.6166 44.6075 38.7103 47.1503 38.7103 47.3545C38.7103 47.6068 38.816 47.8092 39.0399 47.9852C39.3592 48.2364 39.5072 48.2444 43.7984 48.2444H48.2274L48.5343 47.9374C48.7032 47.7685 48.8414 47.5209 48.8414 47.3871C48.8414 47.1608 44.878 36.4991 44.5738 35.9071C44.4504 35.6668 43.9665 35.3537 43.7387 35.3668C43.6903 35.3695 43.502 35.4525 43.3201 35.5514ZM45.1456 42.6655C45.8712 44.5796 46.465 46.1958 46.465 46.257C46.465 46.3187 45.2312 46.3683 43.6999 46.3683C41.1167 46.3683 40.9407 46.3539 41.0223 46.1494C41.1145 45.9189 43.5447 39.5522 43.655 39.2524C43.6903 39.1566 43.7433 39.1022 43.7727 39.1316C43.8021 39.1611 44.4199 40.7513 45.1456 42.6655Z" fill="url(#paint0_linear_4031_670)"/>
<defs>
<linearGradient id="paint0_linear_4031_670" x1="0.5" y1="14.4384" x2="30.0572" y2="69.9159" gradientUnits="userSpaceOnUse">
<stop stop-color="#FFAD62"/>
<stop offset="1" stop-color="#FFC188"/>
</linearGradient>
</defs>
</svg>
