<svg width="60" height="62" viewBox="0 0 60 62" fill="none" xmlns="http://www.w3.org/2000/svg">
<circle cx="47.5" cy="13" r="12.5" fill="#171619"/>
<path fill-rule="evenodd" clip-rule="evenodd" d="M29.3124 5.02267C29.1673 5.049 28.5978 5.1481 28.0466 5.24291C22.4519 6.20576 17.4706 10.6002 15.6539 16.1757C15.1743 17.6474 14.9883 18.6029 14.8393 20.359L14.7137 21.839L14.1813 22.1452C13.5311 22.5191 12.8523 23.2514 12.5101 23.948C12.3696 24.2342 11.8856 25.6049 11.4345 26.9942C10.9835 28.3834 10.5942 29.5565 10.5695 29.6011C10.5447 29.6457 10.3706 29.5625 10.1825 29.4163C9.51761 28.8996 9.17259 28.8214 7.55542 28.8214C6.13992 28.8214 6.00839 28.8392 5.49514 29.0998C3.88967 29.9151 3.49413 32.1263 4.72304 33.4165C5.34009 34.0646 5.79617 34.2401 6.97762 34.2846C7.54329 34.3059 8.00602 34.3556 8.00602 34.3951C8.00602 34.4345 7.21789 35.2644 6.25457 36.2391C5.00098 37.5076 4.43161 38.1641 4.25156 38.5488L4 39.0863V45.6966V52.307L4.24608 52.8444C4.49785 53.3943 5.17533 54.1108 5.56169 54.2358C5.76642 54.302 5.77919 54.401 5.81062 56.1546C5.83783 57.6709 5.87781 58.0734 6.03317 58.3915C6.31153 58.9609 6.82594 59.4544 7.44372 59.7442L7.98893 60L11.7683 59.9692C15.9602 59.9351 15.9668 59.934 16.7044 59.1825C17.3545 58.5198 17.4427 58.1873 17.4796 56.257L17.5132 54.5104H31H44.4868L44.5204 56.257C44.5573 58.1873 44.6455 58.5198 45.2956 59.1825C46.041 59.942 46.0171 59.9384 50.355 59.9384C53.8986 59.9384 54.2927 59.9207 54.6382 59.7454C55.1894 59.4657 55.678 58.9411 55.9603 58.3261C56.1867 57.8327 56.207 57.6466 56.2079 56.0493C56.209 54.3744 56.2172 54.3073 56.4317 54.2379C56.8239 54.111 57.5002 53.3983 57.7539 52.8444L58 52.307V45.6966V39.0863L57.7484 38.5488C57.5684 38.1641 56.999 37.5076 55.7454 36.2391C54.7821 35.2644 53.994 34.4355 53.994 34.3972C53.994 34.3588 54.4805 34.3075 55.0751 34.2831C56.2997 34.2325 56.6178 34.1087 57.2628 33.4315C58.3319 32.3088 58.187 30.3406 56.9653 29.391C56.3468 28.9102 55.9418 28.8227 54.3334 28.8221C52.8355 28.8214 52.4727 28.9071 51.8175 29.4163C51.6294 29.5625 51.4553 29.6457 51.4305 29.6011C51.4058 29.5565 51.0165 28.3834 50.5655 26.9942C50.1144 25.6049 49.6304 24.2342 49.4899 23.948C49.1479 23.252 48.469 22.5191 47.8201 22.146L47.2891 21.8406L47.1597 20.3599C47.0018 18.5547 46.8165 17.6109 46.3303 16.1382C44.7679 11.4039 40.8439 7.40529 36.2154 5.83107C34.5277 5.25709 33.3366 5.0562 31.3692 5.01364C30.383 4.99236 29.4574 4.99644 29.3124 5.02267ZM33.8322 7.10616C38.1349 7.99969 41.7641 10.7861 43.7458 14.7177C44.4089 16.0329 44.9549 17.6781 45.178 19.0323C45.3887 20.3117 45.3923 22.5524 45.1857 23.8504C44.34 29.1643 40.5967 33.6455 35.5713 35.3603C33.9563 35.9113 32.943 36.0683 31 36.0683C29.7623 36.0683 28.9903 36.0136 28.3273 35.8791C22.368 34.67 17.772 29.8683 16.8143 23.8504C16.6077 22.5524 16.6113 20.3117 16.822 19.0323C17.8705 12.667 22.9769 7.71367 29.3307 6.89861C30.462 6.7535 32.6112 6.85261 33.8322 7.10616ZM24.5132 11.439C24.1622 11.5279 23.7217 11.9185 21.8935 13.7613C20.6848 14.9799 19.6049 16.1564 19.4939 16.3757C19.2706 16.8168 19.2325 17.4694 19.4033 17.9271C19.5494 18.3188 21.7584 20.5965 22.1986 20.8094C22.9156 21.1561 23.8172 20.9581 24.4146 20.3227L24.7154 20.0028L25.6925 20.9943C26.6113 21.9268 26.6593 21.9974 26.4979 22.179C26.3807 22.311 26.1727 22.3728 25.8416 22.3739C25.156 22.3762 24.0916 22.6519 23.4983 22.981C21.9879 23.8186 20.7919 26.0319 21.1883 27.2556C21.3389 27.7209 21.8067 28.1347 22.3507 28.2839C22.6912 28.3774 22.8688 28.359 23.3739 28.1781C23.9713 27.9641 23.9911 27.9637 24.2492 28.1591C24.5717 28.4033 24.6333 28.8068 24.414 29.2389C24.0975 29.8626 24.2842 30.7297 24.8291 31.1664C25.2622 31.5137 25.7701 31.6223 26.3977 31.5018C27.7043 31.2509 28.9165 30.2562 29.5781 28.8923C29.9067 28.2144 29.976 27.9464 30.0237 27.1688C30.0676 26.4518 30.1241 26.2074 30.2793 26.0643C30.4707 25.8877 30.5833 25.987 33.1915 28.6321C35.143 30.6113 35.9935 31.4036 36.2211 31.455C36.3951 31.4944 36.6003 31.5465 36.677 31.5709C36.7537 31.5953 37.0353 31.5591 37.3029 31.4904C37.6822 31.3931 37.9708 31.1889 38.6139 30.5628C39.8337 29.3752 40.0893 28.8369 39.8576 27.9437C39.7527 27.5389 39.3821 27.1149 37.0325 24.7103L34.3282 21.9427L35.0079 21.2439L35.6876 20.545H36.3308C37.592 20.545 38.6555 20.0471 39.625 19.0024C40.2347 18.3455 40.5343 17.7955 40.7589 16.9206C40.9346 16.237 40.8904 15.8286 40.5853 15.3165C40.2072 14.6816 39.2563 14.4522 38.4413 14.7993C37.989 14.9918 37.7022 14.9296 37.4849 14.5919C37.347 14.3772 37.3535 14.2851 37.546 13.7268C37.7826 13.041 37.7536 12.6505 37.4252 12.0989C37.1082 11.5663 36.6335 11.3672 35.8363 11.4324C33.9524 11.5865 32.246 13.3614 31.9522 15.4724C31.8939 15.8914 31.876 16.3135 31.9124 16.4103C31.9589 16.5336 31.7619 16.8089 31.2544 17.3299L30.5302 18.0737L29.5529 17.082L28.5756 16.0902L29.034 15.6036C29.7402 14.854 29.8398 14.6535 29.8398 13.9804C29.8398 13.3261 29.605 12.8447 29.1014 12.4667C28.87 12.293 26.1128 11.5157 25.2515 11.3815C25.0775 11.3543 24.7452 11.3802 24.5132 11.439ZM26.6754 13.6257C27.3426 13.7836 27.923 13.9433 27.9653 13.9806C28.0076 14.0179 26.9152 15.196 25.5379 16.5988L23.0334 19.1491L22.0873 18.1805L21.1412 17.2118L23.0909 15.22C24.6157 13.6621 25.0865 13.2401 25.2515 13.2833C25.3675 13.3138 26.0083 13.4678 26.6754 13.6257ZM35.6221 13.7396C35.4044 14.5432 35.7557 15.5311 36.4855 16.1676C37.0216 16.6352 37.6822 16.8342 38.3831 16.7395C38.6733 16.7003 38.9108 16.7088 38.9108 16.7583C38.9108 16.8079 38.7733 17.0693 38.6054 17.3391C37.9826 18.3399 37.0512 18.7799 35.8144 18.6577L35.0912 18.5862L31.6481 22.0902L28.205 25.594L28.1986 26.5897C28.1931 27.4464 28.1537 27.6616 27.9153 28.1324C27.6339 28.6881 27.0649 29.2806 26.6093 29.4921C26.279 29.6455 26.2473 29.5948 26.3589 29.0909C26.7231 27.4449 24.9814 25.7698 23.3755 26.2217C23.16 26.2823 22.9837 26.2969 22.9837 26.2541C22.9837 26.0576 23.6273 25.1735 23.9971 24.8619C24.5711 24.3782 25.2596 24.1903 26.1858 24.2648L26.9391 24.3254L30.3525 20.8373L33.7658 17.3491L33.7835 16.2868C33.8034 15.0933 33.9723 14.6285 34.6033 14.0315C35.4365 13.2434 35.7836 13.1438 35.6221 13.7396ZM28.3098 18.3948L29.2541 19.3615L28.6267 20.0077L27.9992 20.6539L27.0214 19.6616L26.0435 18.6693L26.6462 18.0486C26.9777 17.7072 27.2752 17.428 27.3072 17.428C27.3392 17.428 27.7904 17.8631 28.3098 18.3948ZM35.6409 25.8655L38.1178 28.3913L37.4849 29.0362L36.8521 29.6811L34.3238 27.1029L31.7955 24.5249L32.3698 23.9322C32.6857 23.6063 32.9936 23.3397 33.0541 23.3397C33.1145 23.3397 34.2785 24.4763 35.6409 25.8655ZM15.325 25.5431C15.8139 27.5615 16.7753 29.6119 18.0161 31.2823C18.3408 31.7195 18.6715 32.1669 18.7512 32.2765C18.8913 32.4697 18.782 32.4759 15.2328 32.4759C12.3467 32.4759 11.58 32.4474 11.6182 32.3416C11.6449 32.2677 12.2027 30.5627 12.8581 28.5527C13.9866 25.0914 14.4054 24.0903 14.7816 23.9558C14.9257 23.9042 14.9332 23.9261 15.325 25.5431ZM47.6532 24.4543C47.9181 24.8502 50.4661 32.3449 50.3693 32.4435C50.3503 32.4629 48.7082 32.466 46.7205 32.4504L43.1063 32.4222L43.58 31.831C45.103 29.9306 46.3978 27.1932 46.8159 24.9904C47.028 23.8724 47.0249 23.8809 47.1955 23.9476C47.2839 23.9821 47.49 24.2102 47.6532 24.4543ZM8.88316 30.7737C9.26657 30.9819 9.37036 31.211 9.37384 31.8579L9.37722 32.4759H7.89242H6.40762L6.09931 32.1617C5.69923 31.754 5.69923 31.3705 6.09931 30.9628C6.4015 30.655 6.43008 30.6487 7.53021 30.6487C8.18132 30.6487 8.74952 30.7012 8.88316 30.7737ZM55.9007 30.9628C56.0865 31.1522 56.209 31.3903 56.209 31.5623C56.209 31.7343 56.0865 31.9723 55.9007 32.1617L55.5924 32.4759H54.1076H52.6228L52.6262 31.8579C52.6317 30.8248 52.8866 30.6564 54.4504 30.6519C55.5738 30.6487 55.5973 30.6538 55.9007 30.9628ZM21.9172 35.1059C24.6152 36.964 27.1594 37.8072 30.4199 37.9239C34.1961 38.0591 37.5818 37.0194 40.5058 34.8269L41.2044 34.3032H46.2551H51.306L53.7311 36.7762L56.1563 39.2492V45.6945V52.1397L55.916 52.3846L55.6757 52.6294H31H6.32429L6.08401 52.3846L5.84374 52.1397V45.6945V39.2492L8.26886 36.7762L10.694 34.3032H15.7227H20.7515L21.9172 35.1059ZM8.69162 39.9881C8.20347 40.2177 7.85655 40.5709 7.69665 41.0011C7.55025 41.3948 7.54993 44.6232 7.69634 45.0178C7.84896 45.4296 8.30409 45.9071 8.71461 46.086C9.14517 46.2738 16.6712 46.3038 17.1493 46.1197C17.5229 45.9759 17.9957 45.5244 18.209 45.1079C18.4252 44.6859 18.4178 43.7916 18.1945 43.3515C17.9829 42.9346 14.8945 40.2813 14.2819 39.9901C13.9095 39.8132 13.5817 39.7896 11.4868 39.7896C9.40211 39.7896 9.06226 39.8137 8.69162 39.9881ZM20.5838 39.9281C19.8462 40.2008 19.2921 40.9994 19.2921 41.7897C19.2921 42.5748 19.6034 42.9751 21.3932 44.4906C22.3202 45.2757 23.2456 45.9892 23.4497 46.076C23.9995 46.3101 37.9949 46.3125 38.5442 46.0786C38.745 45.9932 39.6674 45.2863 40.594 44.508C42.3887 43.0004 42.7079 42.59 42.7079 41.7897C42.7079 40.9994 42.1538 40.2008 41.4162 39.9281C40.9239 39.7461 21.0761 39.7461 20.5838 39.9281ZM47.7181 39.9901C47.1473 40.2614 44.0218 42.9246 43.8333 43.3003C43.4398 44.0848 43.5383 44.8912 44.1083 45.5528C44.6931 46.2316 44.7111 46.234 49.0366 46.234C53.284 46.234 53.3622 46.2244 53.9081 45.6292C54.3551 45.1421 54.4159 44.8284 54.4159 43.0095C54.4159 41.2407 54.3513 40.877 53.9605 40.4425C53.4317 39.8546 53.0891 39.7896 50.5132 39.7896C48.4183 39.7896 48.0905 39.8132 47.7181 39.9901ZM15.0407 42.8772C15.8641 43.5707 16.5405 44.1986 16.5437 44.2724C16.5484 44.3774 15.7652 44.4068 12.9634 44.4068H9.37722V43.0812C9.37722 42.352 9.40886 41.7232 9.44757 41.6839C9.48617 41.6444 10.4237 41.613 11.5307 41.6142L13.5436 41.6161L15.0407 42.8772ZM40.8587 41.7141C40.8927 41.7701 40.2365 42.3989 39.4005 43.1114L37.8806 44.4068H31H24.1194L22.5995 43.1114C21.7635 42.3989 21.1073 41.7701 21.1413 41.7141C21.225 41.5759 40.775 41.5759 40.8587 41.7141ZM52.5996 43.0364L52.6291 44.4068H49.0397C46.2354 44.4068 45.4516 44.3774 45.4563 44.2724C45.4595 44.1986 46.1359 43.57 46.9593 42.8758L48.4564 41.6135L50.5132 41.6397L52.57 41.6659L52.5996 43.0364ZM9.219 48.9953C8.82072 49.0988 8.53319 49.4718 8.53678 49.8804C8.54047 50.3035 8.67738 50.5409 9.02745 50.7309C9.18841 50.8182 10.247 50.8559 12.5398 50.8559C16.16 50.8559 16.3222 50.8297 16.5341 50.2102C16.6659 49.8249 16.57 49.4981 16.2344 49.1899C16.0119 48.9854 15.8394 48.9741 12.7152 48.9577C10.9083 48.9483 9.33503 48.9651 9.219 48.9953ZM22.7201 48.9968C22.3231 49.0971 22.0342 49.4712 22.0378 49.8804C22.0415 50.3035 22.1784 50.5409 22.5285 50.7309C22.698 50.8229 24.9364 50.8559 30.9983 50.8559C39.7328 50.8559 39.7157 50.8569 39.9 50.3674C40.0503 49.9681 39.964 49.4945 39.6934 49.2355L39.4213 48.9749L31.1761 48.9592C26.6413 48.9506 22.8361 48.9675 22.7201 48.9968ZM46.1359 48.9957C45.3251 49.2077 45.1572 50.3178 45.8785 50.6979C46.3194 50.9303 52.5964 50.9309 53.0371 50.6987C53.561 50.4226 53.6425 49.6646 53.1946 49.2355L52.9225 48.9749L49.6347 48.9577C47.8264 48.9483 46.252 48.9653 46.1359 48.9957ZM15.7058 56.0235V57.5365L15.3934 57.8549L15.081 58.1733L11.5991 58.1422C7.27042 58.1036 7.65172 58.3017 7.60267 56.0663L7.5685 54.5104H11.6372H15.7058V56.0235ZM54.3973 56.0663C54.3483 58.3017 54.7296 58.1036 50.4009 58.1422L46.919 58.1733L46.6066 57.8549L46.2942 57.5365V56.0235V54.5104H50.3628H54.4315L54.3973 56.0663Z" fill="url(#paint0_linear_2001_798)"/>
<defs>
<linearGradient id="paint0_linear_2001_798" x1="4" y1="17.4194" x2="29.6954" y2="64.7282" gradientUnits="userSpaceOnUse">
<stop stop-color="#FFAD62"/>
<stop offset="1" stop-color="#FFC188"/>
</linearGradient>
</defs>
</svg>
