<svg width="60" height="61" viewBox="0 0 60 61" fill="none" xmlns="http://www.w3.org/2000/svg">
<circle cx="45.5" cy="46" r="12.5" fill="#171619"/>
<path fill-rule="evenodd" clip-rule="evenodd" d="M28.0369 0.713935C22.2664 3.11229 16.1973 4.38264 9.17709 4.66136C6.96744 4.74907 6.91833 4.75669 6.35151 5.09802C5.99846 5.31072 5.63338 5.66812 5.41033 6.01942L5.04609 6.59327L5.00865 18.1522C4.98301 26.0757 5.01395 30.1703 5.10699 31.1708C5.75423 38.1268 8.71041 44.3149 13.7092 49.177C14.5717 50.0161 15.8649 51.1361 16.5828 51.6658C17.3007 52.1955 20.5651 54.2982 23.8373 56.3384C28.6886 59.3633 29.8473 60.0388 30.1154 59.9983C30.4167 59.9529 39.2967 54.4957 42.1203 52.6207C48.0217 48.7019 52.3397 42.6879 54.0916 35.9477C55.0277 32.3462 54.9999 32.8659 54.9999 18.9732V6.5935L54.6357 6.01953C54.4126 5.668 54.0477 5.31072 53.6945 5.09802C53.1277 4.75669 53.0786 4.74907 50.8689 4.66136C43.6671 4.37537 37.4245 3.02974 31.3054 0.444481C30.7097 0.192733 30.1097 -0.00718882 29.9722 0.00019831C29.8346 0.00746818 28.9637 0.328632 28.0369 0.713935ZM31.8142 2.67211C37.7871 5.02086 43.8358 6.26905 50.4209 6.51189C52.4704 6.58752 52.5973 6.60581 52.8637 6.8653L53.1446 7.13898L53.1032 19.3045C53.0574 32.7731 53.0896 32.1701 52.2379 35.4497C50.9877 40.2637 48.4081 44.6115 44.752 48.0662C42.5462 50.1506 42.3805 50.2663 35.0303 54.8515C31.8235 56.852 30.0403 57.8978 29.9157 57.8512C29.5241 57.7049 18.8989 51.0228 17.892 50.2896C16.5851 49.338 14.2334 47.1314 13.2061 45.8925C10.6355 42.7928 8.78564 39.2142 7.80811 35.4497C6.95637 32.1701 6.98863 32.7731 6.94277 19.3045L6.90136 7.13898L7.1823 6.8653C7.44869 6.60581 7.57556 6.58752 9.62511 6.51189C16.0493 6.27503 22.1037 5.04865 27.9093 2.80824C28.7459 2.48544 29.523 2.16873 29.6364 2.10436C29.9405 1.93164 29.9124 1.92425 31.8142 2.67211ZM25.2684 7.67941C22.4252 8.57055 18.9535 9.33389 15.7591 9.7702C14.503 9.94174 12.0365 10.1877 11.5708 10.188C11.4519 10.1881 11.2217 10.3177 11.0592 10.476L10.7637 10.7637L10.7647 20.3548C10.7653 25.8826 10.8161 30.3928 10.8848 31.001C11.6716 37.975 15.3061 43.9942 21.1044 47.9262C21.7446 48.3604 22.1094 48.5308 22.3984 48.5308C22.938 48.5308 23.2822 48.183 23.2822 47.6379C23.2822 47.1506 23.2322 47.1011 21.4165 45.7922C19.9506 44.7353 17.8493 42.6399 16.7518 41.1403C15.1571 38.9615 13.7288 35.762 13.1682 33.113C12.7334 31.0585 12.6896 29.9381 12.6896 20.8879V11.9969L14.1642 11.848C18.0846 11.4522 22.5207 10.5401 26.1981 9.37364C27.804 8.86428 28.1008 8.6619 28.0932 8.08066C28.0888 7.73522 27.9024 7.46741 27.5333 7.27581C27.1673 7.08598 27.1531 7.08856 25.2684 7.67941ZM32.4906 7.27488C31.9351 7.57083 31.784 8.14773 32.1343 8.63481C32.4683 9.0995 37.475 10.5066 41.1656 11.1731C42.8989 11.4861 46.3731 11.9469 46.9998 11.9469H47.3564V20.863C47.3564 30.0361 47.3141 31.0761 46.8558 33.1703C46.2585 35.8991 44.8899 38.9614 43.2942 41.139C41.8973 43.0453 39.6019 45.2308 37.6515 46.5112C36.8722 47.0229 36.7638 47.1705 36.7638 47.7196C36.7638 48.1828 37.1456 48.5308 37.6539 48.5308C38.3356 48.5308 40.8312 46.6882 42.5952 44.8825C45.9714 41.4265 47.9533 37.6063 48.945 32.6426C49.194 31.397 49.2043 31.0006 49.2486 21.0642L49.2945 10.7756L49.0071 10.4957C48.768 10.2627 48.5507 10.2026 47.7071 10.1366C43.4086 9.80033 38.7057 8.89864 34.5612 7.61621C32.8748 7.0943 32.8402 7.08856 32.4906 7.27488ZM36.0573 22.8224C35.8653 22.9997 33.9892 25.01 31.8883 27.2894L28.0683 31.4339L25.8785 29.3121C23.9448 27.4382 23.6432 27.1902 23.2995 27.1902C22.7775 27.1902 22.3193 27.6371 22.3193 28.1462C22.3193 28.485 22.6053 28.8062 24.9373 31.0875C26.3773 32.496 27.6772 33.6785 27.8262 33.7152C27.9751 33.752 28.2189 33.7517 28.3679 33.7148C28.5999 33.6574 30.9381 31.1863 36.6133 25.0012C37.8548 23.648 37.9765 23.3189 37.4312 22.7878C37.0292 22.3961 36.5046 22.4092 36.0573 22.8224Z" fill="url(#paint0_linear_2001_793)"/>
<defs>
<linearGradient id="paint0_linear_2001_793" x1="5" y1="13.5484" x2="35.3433" y2="60.9658" gradientUnits="userSpaceOnUse">
<stop stop-color="#FFAD62"/>
<stop offset="1" stop-color="#FFC188"/>
</linearGradient>
</defs>
</svg>
