<svg width="61" height="61" viewBox="0 0 61 61" fill="none" xmlns="http://www.w3.org/2000/svg">
<circle cx="12.5" cy="25" r="12.5" fill="#171619"/>
<path fill-rule="evenodd" clip-rule="evenodd" d="M22.5691 2.94855C17.9013 3.70203 14.3774 6.90813 13.1071 11.5572C12.8589 12.4657 12.8375 12.7741 12.8437 15.36C12.8497 17.8177 12.8841 18.3301 13.1142 19.4053C13.6495 21.9054 14.5768 24.1601 15.887 26.1475C17.5335 28.645 19.2504 29.9965 21.6556 30.688C22.8379 31.028 25.0976 31.0569 26.2626 30.747C27.3781 30.4503 29.03 29.5943 29.8634 28.881C32.0358 27.022 34.0073 23.4954 34.8002 20.0502C35.192 18.3485 35.3256 16.7422 35.2581 14.5515C35.1677 11.6156 34.713 10.0385 33.3577 7.95933C31.8528 5.65057 29.4943 3.95014 26.7903 3.22422C25.863 2.97528 23.3999 2.81441 22.5691 2.94855ZM25.7154 4.91691C29.6548 5.67062 32.6859 8.87954 33.3092 12.9563C33.5099 14.2691 33.3772 17.7709 33.0731 19.1844C32.1926 23.2773 29.9202 26.947 27.4704 28.2321C25.7969 29.1101 24.0455 29.3406 22.3474 28.9062C20.3495 28.3952 18.8364 27.2296 17.4743 25.1517C16.2208 23.2399 15.4887 21.4777 14.9891 19.1708C14.7584 18.1054 14.7219 17.5922 14.7178 15.36C14.7127 12.6038 14.779 12.1443 15.4058 10.5926C16.5441 7.77453 19.2704 5.52124 22.2637 4.92477C23.3102 4.71629 24.6509 4.71324 25.7154 4.91691ZM46.6064 19.8778C45.03 20.1213 42.8654 20.9799 41.5128 21.8984C40.7361 22.4258 39.0987 24.0425 38.5156 24.8577C35.8875 28.5315 35.5128 33.3516 37.5408 37.3969C38.1676 38.6471 38.5757 39.2199 39.6159 40.3086C40.7027 41.4461 41.6381 42.1568 42.8542 42.769C46.4775 44.5927 50.3058 44.5983 53.9836 42.7848C55.1595 42.205 55.5764 41.8263 55.5764 41.3382C55.5764 40.8769 55.1222 40.394 54.6883 40.394C54.5165 40.394 54.0764 40.5759 53.7102 40.7984C49.7182 43.2233 44.4928 42.5692 41.1496 39.2259C37.1072 35.1836 37.1072 28.7196 41.1496 24.6773C46.8033 19.0235 56.3151 21.641 58.4233 29.4306C58.6247 30.1751 58.6771 30.6954 58.6771 31.9516C58.6771 34.1753 58.2466 35.6932 57.1014 37.5063C56.8431 37.9154 56.6317 38.3918 56.6317 38.5652C56.6317 38.9986 57.1133 39.4559 57.5698 39.4559C58.0271 39.4559 58.3319 39.1553 58.9407 38.1034C59.915 36.4205 60.4681 34.5819 60.5796 32.655C60.9173 26.8225 57.0348 21.5721 51.2966 20.1009C50.2154 19.8237 47.7245 19.7052 46.6064 19.8778ZM51.0385 30.8045L47.4885 34.3475L45.8072 32.6806C44.344 31.2298 44.077 31.0135 43.7485 31.0135C43.2407 31.0135 42.7956 31.4612 42.7956 31.9721C42.7956 32.3123 43.0345 32.5938 44.939 34.4984C46.8913 36.4507 47.1186 36.6418 47.4875 36.6418C47.8631 36.6418 48.1824 36.3518 51.9103 32.6239C55.5557 28.9786 55.9282 28.5704 55.9282 28.2215C55.9282 27.7067 55.484 27.2614 54.9706 27.2614C54.6262 27.2614 54.2391 27.6101 51.0385 30.8045ZM10.9608 34.8947C9.42516 35.114 7.23179 35.9805 5.86729 36.907C5.09059 37.4344 3.45312 39.0511 2.87001 39.8663C0.241973 43.5401 -0.132774 48.3603 1.89527 52.4056C2.52141 53.6547 2.93028 54.2285 3.96576 55.3125C5.89132 57.3279 8.17862 58.5483 10.8436 58.982C12.4093 59.237 35.6603 59.237 37.226 58.982C38.9378 58.7034 40.8243 57.9568 42.1893 57.0177C42.9999 56.46 44.4835 54.9998 45.1285 54.1251C46.536 52.2162 47.4837 49.4392 47.4853 47.2188C47.4859 46.4673 47.1371 46.0222 46.5478 46.0222C45.8945 46.0222 45.6593 46.4053 45.573 47.6098C45.2838 51.647 42.7868 55.0651 39.0313 56.565C37.2055 57.2942 37.3112 57.2895 23.5519 57.251C11.119 57.2164 11.0752 57.2155 10.1962 56.9598C5.56055 55.6113 2.45985 51.6035 2.45985 46.9602C2.45985 42.7742 5.15039 38.8583 9.07316 37.335C10.4941 36.7833 11.6548 36.6418 14.7592 36.6418H17.5303L17.6744 37.2574C18.0346 38.7958 19.2797 40.52 20.5813 41.2827C21.4376 41.7847 22.5689 42.1508 23.5086 42.2302C24.3201 42.2989 24.3805 42.2868 24.6688 41.9985C25.0575 41.6098 25.0723 41.069 24.7043 40.701C24.497 40.4937 24.2495 40.4153 23.6197 40.357C21.3881 40.1507 19.5905 38.3483 19.3812 36.1073C19.3235 35.4895 19.2438 35.2405 19.0375 35.0342L18.769 34.7657L15.2166 34.78C13.2629 34.7879 11.3478 34.8395 10.9608 34.8947ZM29.0129 35.0536C28.8314 35.235 28.725 35.4753 28.725 35.7038C28.725 35.9322 28.8314 36.1725 29.0129 36.3539C29.2983 36.6394 29.3188 36.6418 31.5391 36.6418C33.7595 36.6418 33.78 36.6394 34.0654 36.3539C34.2469 36.1725 34.3532 35.9322 34.3532 35.7038C34.3532 35.4753 34.2469 35.235 34.0654 35.0536C33.78 34.7681 33.7595 34.7657 31.5391 34.7657C29.3188 34.7657 29.2983 34.7681 29.0129 35.0536Z" fill="url(#paint0_linear_2001_803)"/>
<defs>
<linearGradient id="paint0_linear_2001_803" x1="0.599998" y1="15.6069" x2="25.6777" y2="65.7478" gradientUnits="userSpaceOnUse">
<stop stop-color="#FFAD62"/>
<stop offset="1" stop-color="#FFC188"/>
</linearGradient>
</defs>
</svg>
