<svg width="327" height="327" viewBox="0 0 327 327" fill="none" xmlns="http://www.w3.org/2000/svg">
<path d="M21.4586 82.478L82.5151 21.4215C71.6753 27.6156 61.6098 35.0265 52.5029 43.4328L43.4699 52.4659C35.0636 61.5728 27.6527 71.6383 21.4586 82.478Z" fill="white"/>
<path d="M3.24457 131.001L131.036 3.20959C127.496 3.91012 124.03 4.75813 120.564 5.67988L5.71479 120.53C4.79304 123.995 3.9451 127.461 3.24457 131.001Z" fill="white"/>
<path d="M0 163.481C0 163.813 0 164.181 0 164.513L164.55 0C164.218 0 163.85 0 163.518 0C161.121 0 158.762 0.0737396 156.439 0.147479L0.184304 156.402C0.0736947 158.762 0 161.121 0 163.481Z" fill="white"/>
<path d="M2.54417 192.313L192.313 2.54384C190.027 2.13827 187.705 1.76957 185.419 1.47461L1.47491 185.418C1.76987 187.704 2.1386 190.027 2.54417 192.313Z" fill="white"/>
<path d="M8.73824 216.389L216.389 8.73779C214.398 8.03726 212.37 7.41047 210.343 6.82056L6.82104 210.342C7.44783 212.37 8.07458 214.398 8.73824 216.389Z" fill="white"/>
<path d="M17.7716 237.665L237.7 17.7359C235.931 16.851 234.124 15.9662 232.317 15.1182L15.1537 232.282C16.0017 234.088 16.8498 235.895 17.7716 237.665Z" fill="white"/>
<path d="M29.1273 256.615L256.651 29.0907C255.066 27.9846 253.48 26.9154 251.858 25.8831L25.9196 251.822C26.952 253.444 28.0212 255.029 29.1273 256.615Z" fill="white"/>
<path d="M42.548 273.5L273.501 42.547C272.1 41.2934 270.699 40.0398 269.261 38.8231L38.8241 269.26C40.0408 270.661 41.2944 272.099 42.548 273.5Z" fill="white"/>
<path d="M57.9964 288.36L288.396 57.9601C287.18 56.5222 285.926 55.0843 284.672 53.6832L53.7196 284.636C55.1207 285.89 56.5216 287.143 57.9964 288.36Z" fill="white"/>
<path d="M75.3993 301.228L301.264 75.3635C300.232 73.7412 299.163 72.1558 298.056 70.5704L70.6063 298.057C72.1917 299.127 73.7771 300.196 75.3993 301.228Z" fill="white"/>
<path d="M94.9765 311.954L311.956 94.9748C311.108 93.1682 310.26 91.3616 309.338 89.5918L89.5568 309.373C91.3634 310.258 93.1699 311.106 94.9765 311.954Z" fill="white"/>
<path d="M116.988 320.252L320.288 116.952C319.698 114.924 319.035 112.896 318.371 110.905L110.941 318.335C112.932 319.036 114.96 319.662 116.988 320.252Z" fill="white"/>
<path d="M141.986 325.561L325.598 141.949C325.303 139.627 324.934 137.304 324.528 135.018L135.054 324.492C137.34 324.898 139.663 325.266 141.986 325.561Z" fill="white"/>
<path d="M163.517 327C166.061 327 168.568 326.927 171.039 326.816L326.814 171.041C326.925 168.534 326.998 166.027 326.998 163.519C326.998 163.298 326.998 163.114 326.998 162.893L162.891 327C163.075 326.964 163.296 327 163.517 327Z" fill="white"/>
<path d="M207.024 321.099L321.137 206.986C322.095 203.521 322.943 200.018 323.681 196.479L196.516 323.643C200.056 322.905 203.559 322.057 207.024 321.099Z" fill="white"/>
<path d="M304.951 245.48L245.479 304.951C270.109 290.645 290.645 270.109 304.951 245.48Z" fill="white"/>
</svg>
