<svg width="61" height="61" viewBox="0 0 61 61" fill="none" xmlns="http://www.w3.org/2000/svg">
<circle cx="13.5" cy="13" r="12.5" fill="#171619"/>
<path fill-rule="evenodd" clip-rule="evenodd" d="M29.2467 6.82522C28.8877 7.00413 28.4549 7.33285 28.2849 7.55574C28.115 7.77863 27.3288 9.2899 26.538 10.9141C25.631 12.7772 24.997 13.9319 24.8203 14.0425C24.6664 14.1389 23.1068 14.4229 21.3545 14.6735C19.6022 14.9243 17.9223 15.2193 17.6214 15.3291C15.9939 15.9228 15.2647 18.0235 16.1575 19.547C16.3276 19.8371 17.5391 21.1037 18.8498 22.3617C20.2314 23.6875 21.2655 24.7786 21.3105 24.9578C21.3531 25.1277 21.267 26.0058 21.1191 26.9092C20.9712 27.8126 20.8512 28.6246 20.8525 28.7136C20.8569 29.0252 21.4561 29.4888 21.8543 29.4888C22.572 29.4888 22.7743 29.118 23.0822 27.2382C23.4137 25.2134 23.4194 24.7088 23.1179 24.054C22.972 23.7373 21.9666 22.6413 20.3722 21.0612C18.9888 19.69 17.8235 18.4631 17.7827 18.3348C17.6684 17.9744 17.8303 17.5173 18.1456 17.3107C18.3153 17.1996 19.6689 16.9472 21.4858 16.6879C23.1659 16.4483 24.8219 16.1677 25.166 16.0645C26.2781 15.7309 26.4789 15.4634 28.2669 11.9349C29.6652 9.17508 29.9646 8.6687 30.2564 8.56862C31.05 8.2965 31.1579 8.43144 32.9114 11.8906C33.8047 13.6529 34.6414 15.2116 34.7707 15.3546C35.2901 15.9282 36.0111 16.1257 39.4261 16.6297C41.4111 16.9227 42.8837 17.1989 43.0537 17.3104C43.3686 17.5166 43.5317 17.9739 43.4182 18.3318C43.3779 18.4586 42.2135 19.6855 40.8307 21.0583C39.2538 22.6235 38.2297 23.7405 38.0841 24.054C37.7805 24.7077 37.7858 25.2108 38.1179 27.2382C38.4257 29.118 38.628 29.4888 39.3458 29.4888C39.7787 29.4888 40.3445 29.0152 40.3465 28.6511C40.3473 28.5278 40.2265 27.7192 40.078 26.8542C39.9296 25.9894 39.8436 25.1403 39.887 24.9675C39.9336 24.7819 40.9397 23.7188 42.3475 22.3674C43.6575 21.11 44.8693 19.8424 45.0405 19.5504C45.8993 18.0849 45.32 16.1682 43.7998 15.446C43.3007 15.2089 42.4276 15.0367 39.908 14.6785C38.1214 14.4245 36.5355 14.1394 36.3839 14.0448C36.2129 13.9381 35.5615 12.7521 34.6654 10.9157C33.8717 9.28927 33.0837 7.77676 32.9141 7.55449C32.4586 6.95728 31.4551 6.5 30.6 6.5C30.0958 6.5 29.7166 6.59121 29.2467 6.82522ZM9.04798 18.3901C8.47176 18.7088 8.16178 19.1521 7.27159 20.9305C6.75571 21.9612 6.32255 22.8173 6.30893 22.8328C6.29544 22.8484 5.34065 23.0044 4.18709 23.1795C1.56948 23.5767 1.24202 23.7311 0.806729 24.7729C0.322089 25.9331 0.611449 26.5411 2.51727 28.3668L4.03978 29.8253L3.68745 31.8612C3.48843 33.0107 3.36349 34.1088 3.40034 34.3837C3.52841 35.3381 4.57627 36.2261 5.58241 36.2328C5.8494 36.2346 6.68125 35.8841 7.99236 35.2174L9.99477 34.1993L11.9853 35.2174C13.2993 35.8895 14.115 36.2347 14.3855 36.2328C14.9424 36.2291 15.7562 35.8411 16.0857 35.4222C16.6524 34.7018 16.6759 34.3091 16.292 31.9721L15.9394 29.8263L17.4713 28.3339C19.372 26.4823 19.641 25.9162 19.1633 24.7729C18.7267 23.7279 18.3686 23.559 15.7652 23.1694C14.6196 22.9981 13.672 22.8458 13.6595 22.8312C13.6469 22.8166 13.2308 21.9894 12.7349 20.993C11.7969 19.1084 11.5248 18.7139 10.9595 18.4198C10.5599 18.2119 9.40268 18.1939 9.04798 18.3901ZM50.2779 18.3901C49.7017 18.7088 49.3918 19.1521 48.5016 20.9305C47.9857 21.9612 47.5525 22.8173 47.5389 22.8328C47.5254 22.8484 46.562 23.0054 45.3978 23.1816C43.6832 23.4413 43.1905 23.562 42.803 23.8175C41.9847 24.3572 41.637 25.502 42.0161 26.409C42.1104 26.6347 42.8784 27.496 43.7226 28.3229L45.2579 29.8264L44.9046 32.0019C44.7103 33.1983 44.5872 34.3205 44.6311 34.4954C44.8565 35.3932 45.9099 36.2356 46.8076 36.2356C47.0766 36.2356 47.9162 35.8815 49.2223 35.2174L51.2247 34.1993L53.2153 35.2174C54.5293 35.8895 55.345 36.2347 55.6155 36.2328C56.598 36.2262 57.6461 35.3634 57.7963 34.4373C57.8381 34.1798 57.7191 33.1064 57.5157 31.9067L57.1625 29.8232L58.6839 28.3658C60.5884 26.5413 60.8779 25.9328 60.3933 24.7729C59.9566 23.7279 59.5985 23.559 56.9952 23.1694C55.8496 22.9981 54.902 22.8458 54.8895 22.8312C54.8768 22.8166 54.4608 21.9894 53.9649 20.993C53.0269 19.1084 52.7547 18.7139 52.1895 18.4198C51.7898 18.2119 50.6326 18.1939 50.2779 18.3901ZM10.996 22.0237C11.9333 23.9038 12.4091 24.535 13.037 24.7319C13.2482 24.798 14.2642 24.975 15.2949 25.1252C16.3257 25.2754 17.2253 25.4518 17.294 25.5173C17.3754 25.595 16.909 26.1301 15.9542 27.0544C15.1486 27.8343 14.3758 28.6589 14.2367 28.8869C13.9025 29.4351 13.9142 30.017 14.304 32.2119C14.5035 33.3343 14.5808 34.0636 14.5082 34.1362C14.4355 34.2089 13.7101 33.8836 12.5941 33.278C10.869 32.3418 10.7646 32.303 9.98502 32.3067C9.21414 32.3103 9.08133 32.3596 7.37029 33.2762C6.37877 33.8074 5.52019 34.1945 5.46209 34.1364C5.40412 34.0785 5.50782 33.1075 5.69273 31.9785C5.92462 30.5621 5.99946 29.7713 5.93424 29.4264C5.85453 29.0043 5.58503 28.6691 4.20158 27.2713C3.20182 26.2612 2.6096 25.5727 2.68219 25.505C2.74754 25.444 3.64435 25.2729 4.6751 25.1247C5.70585 24.9765 6.72186 24.8005 6.933 24.7334C7.55982 24.5342 8.04471 23.8993 8.90367 22.1523C9.85408 20.2196 9.84047 20.2433 9.99152 20.2433C10.0557 20.2433 10.5078 21.0444 10.996 22.0237ZM52.226 22.0237C53.163 23.9032 53.6386 24.5344 54.267 24.7326C54.4782 24.7992 55.4942 24.9733 56.5249 25.1193C57.5557 25.2655 58.4541 25.4387 58.5214 25.5041C58.6003 25.5807 58.0888 26.1753 57.0846 27.1745C56.2271 28.0277 55.4577 28.8834 55.3748 29.076C55.1542 29.5895 55.1782 30.0607 55.531 32.1462C55.7137 33.2253 55.8024 34.072 55.7394 34.135C55.6763 34.198 54.8627 33.8318 53.8283 33.2747C52.1012 32.3447 51.9937 32.305 51.215 32.3095C50.4432 32.3138 50.3137 32.3622 48.6061 33.2839C47.4872 33.8879 46.7652 34.2095 46.6922 34.1366C46.6191 34.0635 46.6961 33.3376 46.896 32.2119C47.289 29.9983 47.2986 29.437 46.9528 28.8698C46.8081 28.6324 46.0353 27.8083 45.2354 27.0383C44.2825 26.1211 43.8242 25.597 43.906 25.518C43.9748 25.4518 44.9024 25.2709 45.9675 25.116C47.0326 24.961 48.0447 24.7816 48.2164 24.7173C48.82 24.4913 49.2492 23.9122 50.1661 22.0862C50.6751 21.0725 51.1471 20.2433 51.215 20.2433C51.2827 20.2433 51.7377 21.0444 52.226 22.0237ZM29.4131 27.876C22.2797 28.431 16.6759 34.7829 17.023 41.9203C17.0597 42.6762 17.1743 43.6891 17.2777 44.1712C18.3766 49.2962 22.2062 53.2773 27.3223 54.6129C28.586 54.9428 31.1991 55.0638 32.6092 54.8575C37.5047 54.1417 41.7119 50.6812 43.3987 45.9828C45.5234 40.0648 43.2896 33.4663 37.9928 30.0136C36.2167 28.8559 33.9691 28.0534 32.1179 27.9162C31.661 27.8824 31.1185 27.8398 30.9124 27.8216C30.7062 27.8034 30.0315 27.8279 29.4131 27.876ZM33.1846 30.1192C35.29 30.6045 36.969 31.5051 38.5059 32.9728C39.7051 34.1181 40.4161 35.0875 41.0887 36.4944C41.9044 38.2007 42.1313 39.2476 42.1429 41.3581C42.1545 43.5048 41.9125 44.6125 41.0374 46.4181C39.524 49.5407 36.8493 51.7303 33.397 52.6727C32.3804 52.9503 29.9519 53.0483 28.7793 52.8591C26.2841 52.4566 23.9405 51.2162 22.211 49.3828C21.1671 48.2763 20.7036 47.6003 20.0885 46.2878C19.2644 44.5293 19.0649 43.5806 19.0649 41.4205C19.0649 39.2427 19.2788 38.2358 20.1114 36.4944C22.4898 31.5192 27.8725 28.8942 33.1846 30.1192ZM32.577 40.6973L29.1004 44.1596L26.9373 42.0091C24.9219 40.0056 24.7427 39.8588 24.3137 39.8588C23.703 39.8588 23.3535 40.21 23.3535 40.8238C23.3535 41.2631 23.5025 41.438 26.0117 43.9473C28.4473 46.383 28.7061 46.6055 29.1017 46.6055C29.5019 46.6055 29.8249 46.3143 33.5027 42.6366C37.097 39.0422 37.4717 38.6289 37.4717 38.2579C37.4717 37.712 36.9981 37.2351 36.4559 37.2351C36.0961 37.2351 35.6865 37.6006 32.577 40.6973Z" fill="url(#paint0_linear_2001_808)"/>
<defs>
<linearGradient id="paint0_linear_2001_808" x1="0.600006" y1="17.4424" x2="20.2107" y2="62.9753" gradientUnits="userSpaceOnUse">
<stop stop-color="#FFAD62"/>
<stop offset="1" stop-color="#FFC188"/>
</linearGradient>
</defs>
</svg>
