<svg width="201" height="26" viewBox="0 0 201 26" fill="none" xmlns="http://www.w3.org/2000/svg">
<path fill-rule="evenodd" clip-rule="evenodd" d="M31.5628 0.0302436C31.5404 0.0667036 32.982 2.79528 34.7661 6.09388L38.0102 12.0912L48.2126 12.0948L58.4149 12.0984L58.2509 11.7787C58.1607 11.6028 56.9044 9.28276 55.4592 6.62301C54.014 3.96325 52.6241 1.40251 52.3705 0.932515L51.9094 0.0779841L41.7564 0.0210154C36.1721 -0.0103174 31.585 -0.00610245 31.5628 0.0302436ZM0.00909099 0.225875C-0.0218747 0.307227 0.0288683 0.435406 0.121765 0.510719C0.284053 0.642203 0.656206 1.31295 1.87709 3.6743C2.57393 5.02218 3.1642 6.11906 3.71254 7.08514C3.94377 7.49246 4.3201 8.159 4.54895 8.56632C4.7778 8.97365 5.05706 9.46073 5.1694 9.64873C5.28173 9.83672 5.99914 11.1442 6.76356 12.5541C8.61653 15.9719 9.32535 17.1463 10.4772 18.7068C13.1629 22.345 16.5079 24.6485 20.3236 25.4874C22.4977 25.9654 23.3562 25.9987 33.4571 25.9987C39.7148 25.9987 43.1523 25.9591 43.1523 25.8871C43.1523 25.7819 41.6606 22.9968 39.8253 19.6752C39.3752 18.8606 38.6614 17.5531 38.2392 16.7698C37.8169 15.9865 37.3008 15.0306 37.0922 14.6456L36.7129 13.9455L33.2365 13.893C30.1512 13.8465 29.6611 13.8135 28.8792 13.5995C27.8028 13.3049 26.5798 12.7303 26.3953 12.4326C26.3203 12.3114 26.2239 12.2123 26.1811 12.2123C25.9801 12.2123 24.904 10.9147 24.3678 10.0259C24.0392 9.48135 22.6771 7.03045 21.3407 4.57954L18.9109 0.123218L9.4882 0.100658C1.85223 0.0823143 0.0547484 0.106013 0.00909099 0.225875ZM39.1318 13.9352C39.0986 13.9894 43.6049 22.3467 45.3296 25.4291L45.6164 25.9418L55.8082 25.9708L66 26L65.4634 25.0024C64.9615 24.0693 63.1554 20.7473 60.9258 16.6559C60.3964 15.6846 59.8406 14.6725 59.6907 14.4069L59.4181 13.9238L49.2966 13.8941C43.7299 13.8777 39.1557 13.8962 39.1318 13.9352Z" fill="#FFA653"/>
<path d="M74 5.84536H77.0065V17.701H82.8722V20.2783H74V5.84536Z" fill="white"/>
<path d="M84.5943 5.84536H87.6428V20.2783H84.5943V5.84536Z" fill="white"/>
<path d="M98.6574 5.84536H102.337L97.8164 12.8351L102.652 20.2783H98.9727L96.0503 15.1031L93.0228 20.2783H89.3436L94.3053 12.8351L89.8692 5.84536H93.5485L96.0714 10.3814L98.6574 5.84536Z" fill="white"/>
<path d="M104.366 5.84536H107.415V20.2783H104.366V5.84536Z" fill="white"/>
<path d="M112.626 17L112.984 14.6701H120.048L120.405 17H112.626ZM116.474 10.5258L114.266 15.4948L114.329 16.1546L112.395 20.2783H109.01L116.474 5L123.938 20.2783H120.532L118.639 16.2783L118.681 15.5361L116.474 10.5258Z" fill="white"/>
<path d="M136.004 5.84536H138.906V21L128.435 11.3299V20.2783H125.534V5.12371L136.004 14.7938V5.84536Z" fill="white"/>
<path d="M149.251 14.9175V12.567H156.505C156.547 13.6667 156.414 14.7045 156.105 15.6804C155.811 16.6564 155.341 17.5223 154.697 18.2783C154.066 19.0206 153.281 19.6048 152.342 20.0309C151.403 20.457 150.33 20.6701 149.125 20.6701C147.99 20.6701 146.939 20.4845 145.971 20.1134C145.018 19.7423 144.184 19.2199 143.47 18.5464C142.769 17.8729 142.222 17.0687 141.83 16.134C141.451 15.1993 141.262 14.1753 141.262 13.0619C141.262 11.9485 141.458 10.9313 141.851 10.0103C142.257 9.0756 142.818 8.27835 143.533 7.61856C144.247 6.95876 145.088 6.45017 146.056 6.09278C147.023 5.7354 148.074 5.5567 149.209 5.5567C150.218 5.5567 151.122 5.69416 151.921 5.96907C152.734 6.24399 153.449 6.62887 154.066 7.12371C154.697 7.60481 155.236 8.18213 155.685 8.85567L153.12 10.3196C152.755 9.68728 152.244 9.17869 151.585 8.79381C150.94 8.39519 150.148 8.19588 149.209 8.19588C148.326 8.19588 147.52 8.39519 146.791 8.79381C146.063 9.17869 145.481 9.73539 145.046 10.4639C144.626 11.1924 144.416 12.0584 144.416 13.0619C144.416 14.0515 144.626 14.9244 145.046 15.6804C145.467 16.4227 146.035 17 146.749 17.4124C147.478 17.8247 148.298 18.0309 149.209 18.0309C149.812 18.0309 150.352 17.9553 150.828 17.8041C151.305 17.6392 151.711 17.4124 152.047 17.1237C152.398 16.8351 152.692 16.5052 152.93 16.134C153.169 15.7629 153.351 15.3574 153.477 14.9175H149.251Z" fill="white"/>
<path d="M157.467 16.5464V14.2165H161.861V16.5464H157.467Z" fill="white"/>
<path d="M166.901 13.5567H170.076L174.869 20.2783H171.316L166.901 13.5567ZM163.558 5.84536H166.565V20.2783H163.558V5.84536ZM165.388 8.36083V5.84536H168.499C169.662 5.84536 170.651 6.0378 171.464 6.42268C172.276 6.80756 172.9 7.34364 173.335 8.03093C173.769 8.71821 173.986 9.52234 173.986 10.4433C173.986 11.3505 173.769 12.1546 173.335 12.8557C172.9 13.543 172.276 14.079 171.464 14.4639C170.651 14.8488 169.662 15.0412 168.499 15.0412H165.388V12.6907H168.31C168.843 12.6907 169.298 12.6082 169.676 12.4433C170.069 12.2646 170.37 12.0172 170.581 11.701C170.791 11.3711 170.896 10.9794 170.896 10.5258C170.896 10.0722 170.791 9.68728 170.581 9.37113C170.37 9.04124 170.069 8.79381 169.676 8.62887C169.298 8.45017 168.843 8.36083 168.31 8.36083H165.388Z" fill="#FFA653"/>
<path d="M176.491 5.84536H179.497V15.3505C179.497 16.1753 179.715 16.8419 180.149 17.3505C180.598 17.8454 181.256 18.0928 182.125 18.0928C182.994 18.0928 183.646 17.8454 184.081 17.3505C184.529 16.8419 184.753 16.1753 184.753 15.3505V5.84536H187.76V15.5361C187.76 16.3883 187.62 17.1375 187.339 17.7835C187.059 18.4296 186.66 18.9725 186.141 19.4124C185.636 19.8522 185.041 20.1821 184.354 20.4021C183.667 20.6357 182.924 20.7526 182.125 20.7526C181.312 20.7526 180.562 20.6357 179.876 20.4021C179.189 20.1821 178.593 19.8522 178.089 19.4124C177.584 18.9725 177.192 18.4296 176.911 17.7835C176.631 17.1375 176.491 16.3883 176.491 15.5361V5.84536Z" fill="#FFA653"/>
<path d="M192.107 15.433C192.415 15.9691 192.751 16.4364 193.116 16.8351C193.494 17.2337 193.908 17.543 194.356 17.7629C194.805 17.9828 195.288 18.0928 195.807 18.0928C196.41 18.0928 196.9 17.9416 197.279 17.6392C197.657 17.3368 197.846 16.9244 197.846 16.4021C197.846 15.9485 197.727 15.5842 197.489 15.3093C197.265 15.0344 196.921 14.7938 196.459 14.5876C196.01 14.3677 195.457 14.134 194.798 13.8866C194.447 13.7629 194.041 13.5979 193.578 13.3918C193.13 13.1718 192.702 12.8969 192.296 12.567C191.889 12.2234 191.553 11.811 191.287 11.3299C191.02 10.8351 190.887 10.244 190.887 9.5567C190.887 8.73196 191.098 8.02406 191.518 7.43299C191.953 6.82818 192.534 6.3677 193.263 6.05155C194.006 5.72165 194.833 5.5567 195.744 5.5567C196.683 5.5567 197.489 5.71478 198.162 6.03093C198.849 6.33333 199.416 6.72509 199.865 7.20619C200.327 7.67354 200.685 8.16151 200.937 8.6701L198.582 9.94845C198.386 9.60481 198.148 9.29553 197.867 9.02062C197.601 8.73196 197.293 8.50515 196.942 8.34021C196.592 8.16151 196.192 8.07217 195.744 8.07217C195.155 8.07217 194.714 8.20962 194.419 8.48454C194.125 8.7457 193.978 9.05498 193.978 9.41237C193.978 9.76976 194.097 10.0859 194.335 10.3608C194.574 10.622 194.938 10.8763 195.429 11.1237C195.919 11.3574 196.536 11.5979 197.279 11.8454C197.755 12.0103 198.211 12.2165 198.645 12.4639C199.094 12.7113 199.493 13.0137 199.844 13.3711C200.208 13.7148 200.488 14.1271 200.685 14.6082C200.895 15.0756 201 15.6186 201 16.2371C201 16.9381 200.86 17.5636 200.58 18.1134C200.299 18.6632 199.914 19.1306 199.423 19.5155C198.933 19.8866 198.379 20.1684 197.762 20.3608C197.16 20.567 196.522 20.6701 195.849 20.6701C194.952 20.6701 194.111 20.5052 193.326 20.1753C192.555 19.8316 191.882 19.3711 191.308 18.7938C190.733 18.2165 190.285 17.5911 189.962 16.9175L192.107 15.433Z" fill="#FFA653"/>
</svg>
