<svg width="17" height="18" viewBox="0 0 17 18" fill="none" xmlns="http://www.w3.org/2000/svg">
<path fill-rule="evenodd" clip-rule="evenodd" d="M4.01784 0.324063C3.5316 0.590393 2.69594 1.35052 2.08443 2.08263C1.16485 3.18369 0.773812 4.12207 0.70477 5.39374C0.588078 7.54264 1.49053 9.87984 3.46183 12.5343C5.90212 15.8201 8.42977 17.6023 10.9554 17.8177C11.5611 17.8694 11.8812 17.8364 12.5659 17.6519C13.2661 17.4632 13.739 17.2679 14.4006 16.8943C15.9511 16.0187 16.493 15.391 16.4441 14.5274C16.4053 13.842 15.9714 13.2141 14.7232 12.0368C14.0237 11.3771 13.6926 11.1139 13.154 10.79C12.7275 10.5333 12.4017 10.3989 12.0449 10.332C11.6724 10.2623 11.3975 10.2789 11.0641 10.3912C10.7462 10.4983 10.5587 10.621 9.93377 11.1311C9.5216 11.4675 9.43234 11.5253 9.24516 11.5765C8.98546 11.6476 8.86275 11.6241 8.50332 11.4347C7.68053 11.0009 6.49792 9.57987 6.27857 8.76125C6.18637 8.41714 6.20615 8.18439 6.34641 7.96279C6.47227 7.76397 6.53936 7.70348 7.21418 7.18021C7.47399 6.97878 7.76352 6.72626 7.85757 6.61907C8.16389 6.26999 8.3265 5.72041 8.29125 5.15336C8.26782 4.77644 8.07132 4.04223 7.86068 3.54457C7.69371 3.15002 7.00734 1.87658 6.71049 1.41053C6.31752 0.793556 5.74643 0.291216 5.2978 0.16789C4.87436 0.0514681 4.41269 0.107805 4.01784 0.324063ZM5.01072 1.448C5.28856 1.57804 5.64998 2.08043 6.20259 3.10481C6.61865 3.87603 6.75948 4.20091 6.89746 4.70765C7.00574 5.10531 7.02074 5.20624 6.99939 5.39464C6.98565 5.51609 6.94139 5.6698 6.90106 5.73624C6.86073 5.80268 6.59804 6.03362 6.31732 6.2495C5.60266 6.79899 5.46571 6.93544 5.23288 7.32978C5.07607 7.59545 5.01643 7.74489 4.97504 7.97598C4.79971 8.95518 5.19859 9.92591 6.29151 11.1797C6.87711 11.8515 7.28333 12.212 7.77681 12.4976C8.47635 12.9026 8.95096 12.9937 9.54379 12.837C9.95636 12.728 10.1192 12.6302 10.8037 12.0803C11.408 11.5948 11.5221 11.5416 11.83 11.6004C12.0558 11.6436 12.5427 11.8966 12.8757 12.1437C13.3899 12.5252 14.3768 13.4535 14.791 13.9452C15.0669 14.2728 15.1921 14.5621 15.134 14.7383C15.0631 14.9534 14.2071 15.5607 13.3869 15.9776C12.8355 16.2579 12.0064 16.5147 11.5644 16.5421C10.4947 16.6083 9.1558 16.1457 7.92049 15.2831C7.50853 14.9954 6.66609 14.2718 6.24756 13.8462C5.01274 12.5904 3.63044 10.6924 2.94433 9.31062C2.55272 8.52196 2.39868 8.10044 2.1937 7.25689C1.95485 6.2739 1.92073 5.76776 2.03956 4.97052C2.1854 3.99223 2.80356 3.03495 3.9738 1.97523C4.56597 1.43898 4.76987 1.33529 5.01072 1.448Z" fill="white"/>
</svg>
