<svg width="70" height="70" viewBox="0 0 70 70" fill="none" xmlns="http://www.w3.org/2000/svg">
<path fill-rule="evenodd" clip-rule="evenodd" d="M32.37 0.0407169C32.1065 0.0713683 31.3055 0.163186 30.5902 0.244877C19.7568 1.48133 9.74753 8.26816 4.25473 18.1019C2.24873 21.6931 0.794348 26.1552 0.177024 30.6122C-0.0590079 32.3164 -0.0590079 37.6656 0.177024 39.3698C1.62114 49.7955 7.1839 58.6506 15.8724 64.3542C26.5004 71.3311 40.4262 71.8842 51.6742 65.7762C53.3917 64.8437 53.781 64.5336 54.1246 63.824C54.7158 62.6035 54.3311 61.1759 53.1957 60.3767C52.7051 60.0313 52.486 59.9683 51.7687 59.9662C51.2432 59.9647 50.7651 60.048 50.5105 60.1855C48.213 61.4258 47.2827 61.8817 45.9925 62.3994C41.5687 64.1746 36.8191 64.8611 32.1542 64.3998C20.4592 63.2435 10.553 55.3178 6.91761 44.2087C4.89396 38.0247 4.89382 31.9514 6.9172 25.7733C9.84652 16.8281 16.8162 9.87161 25.786 6.93989C31.9341 4.93044 38.0274 4.93441 44.1939 6.95179C50.8858 9.1409 56.4196 13.5304 60.229 19.6708C62.4502 23.2512 63.9637 27.8068 64.4031 32.2346C65.0288 38.5403 63.4472 45.1034 59.9465 50.7272C59.1759 51.9653 59.1374 52.0695 59.1366 52.9166C59.1356 53.9837 59.4854 54.6522 60.3406 55.2178C61.1021 55.7215 62.4416 55.7426 63.2131 55.2632C64.0345 54.7528 65.7097 52.0343 66.9992 49.119C73.416 34.6109 69.3029 17.6746 56.9452 7.71999C51.9669 3.70972 46.4292 1.30016 39.9 0.303443C38.5352 0.095041 33.435 -0.0828467 32.37 0.0407169ZM27.5815 21.5267C25.6133 22.0553 24.0587 23.6288 23.5451 25.6122C23.2312 26.8251 23.2299 43.1496 23.5437 44.3698C23.9808 46.0689 25.4045 47.6673 27.0248 48.2781C28.1479 48.7016 29.6358 48.7631 30.6867 48.4296C31.2137 48.2622 34.3052 46.5583 38.8328 43.9397C44.6231 40.5906 46.279 39.5709 46.8546 38.9998C49.0449 36.8261 49.0449 33.1559 46.8546 30.9822C46.279 30.4111 44.6231 29.3914 38.8328 26.0423C34.3025 23.4221 31.2224 21.7245 30.7086 21.5647C29.7325 21.2611 28.6209 21.2475 27.5815 21.5267ZM35.9439 30.6942C39.6634 32.8466 42.7969 34.6939 42.9071 34.7993C43.0832 34.9676 43.0832 35.0143 42.9071 35.182C42.4845 35.5849 29.1569 43.2059 28.9882 43.1411C28.8451 43.0863 28.8104 41.4969 28.8104 35.0181C28.8104 30.5879 28.8514 26.9221 28.9017 26.8721C28.9518 26.8218 29.0353 26.7808 29.0871 26.7808C29.1388 26.7808 32.2245 28.5419 35.9439 30.6942Z" fill="url(#paint0_linear_4027_33)"/>
<defs>
<linearGradient id="paint0_linear_4027_33" x1="-4.53702e-07" y1="15.8065" x2="32.3744" y2="76.5161" gradientUnits="userSpaceOnUse">
<stop stop-color="#FFAD62"/>
<stop offset="1" stop-color="#FFC188"/>
</linearGradient>
</defs>
</svg>
