<svg width="51" height="50" viewBox="0 0 51 50" fill="none" xmlns="http://www.w3.org/2000/svg">
<rect x="0.666687" width="50" height="50" rx="11" fill="#0077FF"/>
<path fill-rule="evenodd" clip-rule="evenodd" d="M17.4233 19.4241C16.9332 19.5791 16.6667 19.9409 16.6667 20.451C16.6667 21.5307 17.8077 24.2207 19.0688 26.1143C20.754 28.6447 22.6803 30.143 24.7787 30.5557C25.2333 30.6452 26.3733 30.6442 26.6942 30.5542C27.0068 30.4664 27.2377 30.3427 27.3989 30.1766C27.635 29.9333 27.6523 29.8374 27.667 28.6874C27.6741 28.1283 27.6892 27.6616 27.7005 27.6503C27.7315 27.6193 27.9865 27.7646 28.2628 27.9707C28.5132 28.1575 29.1134 28.7457 30.128 29.7987C30.6199 30.3092 30.7222 30.398 30.9367 30.501L31.1823 30.619H32.5204C33.83 30.619 33.8621 30.6174 34.0285 30.5406C34.2817 30.4237 34.4482 30.2766 34.5641 30.0673C34.66 29.8942 34.6678 29.8532 34.6666 29.528C34.6655 29.2374 34.6507 29.1423 34.5818 28.9825C34.2765 28.2751 33.6141 27.4194 32.2794 26.0087C31.9863 25.699 31.7271 25.4205 31.7032 25.3898C31.6667 25.3428 31.7079 25.2647 31.9635 24.8971C33.0331 23.3586 33.9722 21.7276 34.2279 20.9646C34.3438 20.6185 34.3667 20.2854 34.2917 20.0352C34.2328 19.8384 33.9853 19.577 33.7627 19.4764C33.5775 19.3927 33.5727 19.3924 32.2572 19.3924H30.9375L30.7226 19.4917C30.3417 19.6678 30.1497 19.9091 29.8633 20.5714C29.3415 21.7784 28.3447 23.4006 27.8117 23.9101L27.6877 24.0287L27.6625 23.8609C27.6487 23.7686 27.6489 23.0094 27.6631 22.1737C27.6908 20.5349 27.6736 20.2541 27.5252 19.9224C27.4273 19.7037 27.3155 19.5818 27.1146 19.4746L26.9606 19.3924H25.1658C23.3833 19.3924 23.37 19.393 23.2261 19.4699C22.8777 19.6563 22.6897 19.9146 22.6594 20.2484C22.6322 20.5491 22.7131 20.7791 22.9836 21.1695C23.3647 21.7197 23.3624 21.7057 23.3552 23.3684C23.3518 24.1422 23.3439 24.7806 23.3375 24.787C23.3166 24.8079 22.883 24.2088 22.6635 23.8556C22.0815 22.9193 21.5398 21.7729 21.1281 20.6066C20.8659 19.8635 20.6226 19.571 20.1498 19.4306C19.9937 19.3842 19.7597 19.3752 18.7631 19.3772C17.8997 19.3789 17.5247 19.392 17.4233 19.4241ZM19.8838 20.5802C19.912 20.6238 20.0094 20.8648 20.1001 21.1158C20.6102 22.5267 21.3748 24.0448 22.0531 24.9938C22.3928 25.469 22.902 25.9648 23.1878 26.0985C23.8159 26.3924 24.3474 26.109 24.4764 25.4114C24.5397 25.0689 24.5274 22.1314 24.4611 21.751C24.3935 21.3637 24.2493 20.9894 24.0616 20.7145L23.9159 20.501H25.2165H26.5171L26.529 22.5686C26.5426 24.9341 26.5359 24.8763 26.8307 25.1806C27.0958 25.4543 27.3994 25.4917 27.8185 25.3022C28.4234 25.0288 29.0073 24.3895 29.785 23.1494C30.1008 22.6457 30.7512 21.4026 30.993 20.8402C31.077 20.645 31.1362 20.5543 31.1942 20.5323C31.2394 20.5151 31.7047 20.501 32.2281 20.501H33.1798L33.1564 20.5978C33.1169 20.7606 32.7731 21.4521 32.4849 21.9486C32.1305 22.5591 31.6559 23.3063 31.0797 24.1611C30.566 24.9233 30.4734 25.1312 30.51 25.4403C30.5502 25.7796 30.6948 25.997 31.3092 26.6424C32.5055 27.8989 33.1751 28.7136 33.4382 29.2329C33.5907 29.5339 33.6578 29.5148 32.4916 29.5031L31.4592 29.4928L31.3183 29.3952C31.2409 29.3415 30.9366 29.03 30.6422 28.703C29.2267 27.1309 28.3473 26.4837 27.6117 26.4724C26.9655 26.4625 26.6512 26.7351 26.5569 27.3872C26.5378 27.5194 26.5218 28.0337 26.5214 28.53L26.5207 29.4324L26.4404 29.4526C26.2459 29.5014 25.666 29.5148 25.3418 29.478C24.6301 29.3972 23.9771 29.179 23.3099 28.7991C21.7091 27.8876 20.166 26.0525 18.937 23.5986C18.3861 22.4989 17.9021 21.2136 17.8401 20.6861L17.8184 20.501H18.8254C19.8311 20.501 19.8325 20.5011 19.8838 20.5802Z" fill="white"/>
</svg>
