<svg width="51" height="50" viewBox="0 0 51 50" fill="none" xmlns="http://www.w3.org/2000/svg">
<rect x="0.666687" width="50" height="50" rx="11" fill="#FF6060"/>
<path fill-rule="evenodd" clip-rule="evenodd" d="M20.122 16.0431C20.2428 16.3617 21.1625 19.1472 21.2464 19.4483L21.3591 19.8529L21.3783 21.3659L21.3975 22.8789L21.9165 22.8887L22.4355 22.8984V21.5093V20.1203L23.0352 18.1393C23.3651 17.0498 23.6439 16.1227 23.6548 16.0792L23.6747 16H23.1431C22.8507 16 22.6115 16.0084 22.6115 16.0186C22.6115 16.0463 21.9388 18.6196 21.929 18.6294C21.9244 18.634 21.7615 18.0483 21.567 17.3277L21.2135 16.0176L20.6592 16.0079C20.2213 16.0002 20.1086 16.0076 20.122 16.0431ZM24.5925 17.7525C24.1639 17.9052 23.8879 18.2108 23.7443 18.6918C23.7035 18.8286 23.6884 19.1486 23.6764 20.1321C23.66 21.4687 23.6822 21.7963 23.8131 22.1462C23.8998 22.3778 24.184 22.6961 24.4027 22.8067C25.0722 23.1449 25.936 22.887 26.2422 22.2574C26.4151 21.902 26.4292 21.7536 26.4289 20.2927C26.4286 18.8473 26.4146 18.7083 26.2349 18.356C26.1319 18.1541 25.8655 17.904 25.6452 17.8023C25.3752 17.6778 24.8695 17.6538 24.5925 17.7525ZM27.1857 20.0039C27.1857 22.4974 27.1906 22.5602 27.4031 22.7797C27.7069 23.0936 28.3236 22.9647 28.7691 22.4942L28.8922 22.3642L28.9098 22.6215L28.9274 22.8789L29.3936 22.8887L29.8599 22.8986V20.3289V17.7593H29.3848H28.9098V19.7155C28.9098 21.6555 28.9092 21.6726 28.8348 21.7771C28.719 21.9397 28.4937 22.0872 28.3612 22.0872C28.128 22.0872 28.1357 22.1642 28.1357 19.8451V17.7593H27.6607H27.1857V20.0039ZM25.249 18.5855C25.3159 18.62 25.3713 18.6937 25.4144 18.8054C25.4731 18.9577 25.4792 19.0955 25.4792 20.2927C25.4792 21.0184 25.4668 21.6705 25.4516 21.7416C25.4365 21.8128 25.3787 21.9197 25.3232 21.9791C25.2396 22.0686 25.1951 22.0872 25.0652 22.0872C24.8504 22.0872 24.738 21.9925 24.6682 21.7525C24.6216 21.5921 24.615 21.3604 24.625 20.233C24.638 18.7762 24.6454 18.7203 24.8416 18.6006C24.9734 18.5202 25.1128 18.515 25.249 18.5855ZM23.755 23.4289C21.493 23.4573 20.0631 23.5533 19.5964 23.7082C19.1441 23.8583 18.7039 24.2416 18.4967 24.6655C18.3582 24.949 18.2674 25.3237 18.1744 25.9958C18.1083 26.4739 18.0974 26.7546 18.0823 28.3607C18.0615 30.5786 18.1134 31.4323 18.3201 32.2737C18.4947 32.9844 18.9456 33.5008 19.5819 33.7185C19.8242 33.8014 20.3816 33.8659 21.6087 33.9529C22.4949 34.0157 28.7606 34.0157 29.7191 33.9528C31.6477 33.8263 31.9448 33.7575 32.4251 33.3256C32.7606 33.024 32.9442 32.6704 33.0609 32.1012C33.2373 31.2406 33.2553 30.9246 33.2553 28.7023C33.2553 26.4346 33.2352 26.1048 33.0441 25.2447C32.9363 24.7599 32.7971 24.4954 32.4823 24.1769C32.1984 23.8898 31.9061 23.7248 31.5529 23.6523C30.6334 23.4637 27.6914 23.3793 23.755 23.4289ZM22.4004 25.5355V25.9929H21.8552H21.31L21.301 28.9222L21.292 31.8514L20.7906 31.8612L20.2892 31.871V28.9319V25.9929H19.7438H19.1984V25.5355V25.0781H20.7994H22.4004V25.5355ZM26.9042 26.1739V27.2698L27.0977 27.0868C27.629 26.5844 28.2795 26.6315 28.5197 27.19C28.6481 27.4884 28.6695 27.8601 28.6549 29.5371C28.6399 31.2444 28.6309 31.3328 28.4402 31.6208C28.3117 31.815 28.1244 31.9042 27.8449 31.9042C27.5676 31.9042 27.3283 31.7941 27.0799 31.5521L26.9072 31.384L26.8969 31.6177L26.8866 31.8514L26.438 31.8613L25.9894 31.8711V28.4746V25.0781H26.4468H26.9042V26.1739ZM31.2602 26.8173C31.4709 26.8916 31.7115 27.0661 31.8311 27.2312C32.0656 27.5549 32.1453 27.9865 32.1464 28.9392L32.147 29.4752L31.2233 29.4846L30.2997 29.494L30.3011 30.0745C30.3028 30.7227 30.3333 30.867 30.4982 31.0058C30.5787 31.0735 30.6439 31.0949 30.7696 31.0949C31.0707 31.0949 31.1966 30.9219 31.1974 30.5067C31.1983 30.0868 31.1696 30.1097 31.6937 30.1097H32.147L32.1454 30.2065C32.1397 30.5704 32.0766 31.0321 32.0129 31.1759C31.9125 31.4031 31.6471 31.6742 31.4125 31.7894C31.2297 31.8792 31.1822 31.8866 30.7923 31.8866C30.4108 31.8866 30.3514 31.8778 30.1765 31.7952C29.9341 31.6808 29.7136 31.4677 29.5948 31.2334C29.4293 30.9068 29.4024 30.6392 29.4024 29.318C29.4024 28.0043 29.4296 27.7286 29.5904 27.4112C29.749 27.0983 30.0917 26.8465 30.4675 26.7667C30.663 26.7252 31.0734 26.7514 31.2602 26.8173ZM23.4559 28.8703C23.4559 31.1828 23.4467 31.0949 23.6913 31.0949C23.8468 31.0949 24.0179 30.9924 24.1583 30.8151L24.2652 30.6802V28.7412V26.8022H24.7227H25.1801V29.3356V31.869H24.7227H24.2652V31.5819V31.2949L24.0392 31.512C23.7448 31.7946 23.5135 31.9034 23.2061 31.9039C22.8 31.9045 22.6323 31.7254 22.5754 31.2305C22.5568 31.0689 22.5415 30.0064 22.5414 28.8694L22.5411 26.8022H22.9985H23.4559V28.8703ZM27.1516 27.5968C26.8858 27.7121 26.9042 27.5826 26.9042 29.3396V30.916L27.0568 31.0055C27.2308 31.1074 27.4465 31.1231 27.562 31.0422C27.6034 31.0132 27.6663 30.9143 27.7018 30.8223C27.7603 30.6707 27.7663 30.5303 27.7663 29.318C27.7663 27.8566 27.7585 27.7908 27.5677 27.6302C27.4478 27.5294 27.3291 27.5198 27.1516 27.5968ZM30.5425 27.6058C30.382 27.7067 30.3126 27.9144 30.2907 28.3592L30.2721 28.7374H30.7521H31.2321L31.2319 28.3944C31.2317 27.9899 31.192 27.8224 31.0617 27.6765C30.9359 27.5357 30.7042 27.5042 30.5425 27.6058Z" fill="white"/>
</svg>
