<svg width="51" height="50" viewBox="0 0 51 50" fill="none" xmlns="http://www.w3.org/2000/svg">
<rect x="0.666687" width="50" height="50" rx="11" fill="#79C562"/>
<path fill-rule="evenodd" clip-rule="evenodd" d="M25.6207 17.0392C24.5679 17.1761 23.5063 17.4937 22.6301 17.9339C21.9115 18.2949 21.0895 18.888 20.453 19.5049C19.0194 20.8943 18.1375 22.5943 17.8084 24.6024C17.7232 25.1223 17.7126 26.6025 17.7904 27.1228C17.9459 28.1632 18.1729 28.8995 18.6343 29.8606L18.9013 30.4165L18.2764 32.7005C17.9328 33.9567 17.6585 34.9914 17.6669 34.9998C17.6753 35.0082 18.7277 34.7413 20.0056 34.4066C21.2836 34.072 22.3446 33.7986 22.3636 33.7991C22.3826 33.7995 22.5688 33.8827 22.7774 33.9838C23.4957 34.3318 24.3171 34.5948 25.1546 34.7447C25.7159 34.8452 27.0335 34.8844 27.6195 34.818C29.665 34.5863 31.5256 33.6909 32.9763 32.2402C33.6913 31.5253 34.2117 30.7965 34.6655 29.8746C35.2713 28.6439 35.5407 27.5657 35.579 26.2178C35.6122 25.0516 35.4867 24.1681 35.1367 23.104C34.0929 19.931 31.3212 17.5939 27.9906 17.0785C27.4465 16.9943 26.1338 16.9726 25.6207 17.0392ZM27.9795 18.5998C30.8727 19.1361 33.1886 21.3147 33.8806 24.151C34.2149 25.5208 34.1376 27.0776 33.67 28.3993C33.128 29.9308 32.0645 31.2762 30.6803 32.1815C30.2682 32.4509 29.4843 32.8267 28.9971 32.9883C27.5072 33.4823 25.8053 33.4825 24.3132 32.9885C23.9229 32.8593 23.227 32.54 22.7994 32.2939L22.5925 32.1749L21.2054 32.5377C20.4426 32.7373 19.8115 32.8936 19.803 32.8851C19.7945 32.8766 19.9498 32.2791 20.1482 31.5573C20.3465 30.8356 20.5106 30.2197 20.5127 30.1887C20.5148 30.1576 20.4262 29.9883 20.3158 29.8125C19.6121 28.6911 19.2257 27.3177 19.2257 25.9379C19.2257 24.1433 19.8225 22.5126 20.9902 21.1166C22.1627 19.7148 23.9437 18.7554 25.79 18.5308C26.2821 18.4709 27.4895 18.509 27.9795 18.5998ZM23.1456 21.8972C23.0108 21.9644 22.881 22.0776 22.7256 22.2639C22.2833 22.7939 22.0993 23.3442 22.1322 24.0374C22.167 24.7668 22.4406 25.4188 23.1005 26.3453C24.2139 27.9082 25.5413 29.06 26.9039 29.6455C27.4957 29.8999 28.2933 30.1515 28.6511 30.1966C29.4335 30.2955 30.1498 30.0688 30.7221 29.5412C30.9293 29.3503 31.019 29.1825 31.1152 28.8065C31.2089 28.44 31.2119 28.1114 31.1223 28.0212C31.0542 27.9527 29.6179 27.2413 29.2736 27.1056C29.1664 27.0633 29.0273 27.0288 28.9644 27.0288C28.8371 27.0288 28.8661 27 28.3383 27.6481C28.1367 27.8957 27.9262 28.1238 27.8706 28.1549C27.744 28.2258 27.6614 28.1996 27.0313 27.8892C26.4534 27.6045 25.9634 27.2537 25.5103 26.8004C25.0064 26.2961 24.4169 25.4766 24.4169 25.2803C24.4169 25.2364 24.5621 25.0088 24.7396 24.7744C24.9171 24.5399 25.0896 24.291 25.1229 24.2211C25.1984 24.0627 25.1958 24.0541 24.7038 22.872C24.2505 21.7828 24.2661 21.7999 23.7278 21.7999C23.387 21.7999 23.3175 21.8115 23.1456 21.8972Z" fill="white"/>
</svg>
