<svg width="51" height="50" viewBox="0 0 51 50" fill="none" xmlns="http://www.w3.org/2000/svg">
<rect x="0.666687" width="50" height="50" rx="11" fill="#239AD6"/>
<path fill-rule="evenodd" clip-rule="evenodd" d="M33.3132 17.2136C33.2939 17.2218 29.6997 18.4071 25.3262 19.8478C20.9527 21.2884 17.3122 22.4987 17.2363 22.5375C17.1604 22.5762 17.0278 22.6863 16.9416 22.7821C16.5609 23.2056 16.5775 23.8549 16.9795 24.2568C17.1342 24.4115 17.2848 24.4837 19.1848 25.3151L21.2242 26.2074L21.8146 28.9534C22.1393 30.4636 22.4327 31.7626 22.4666 31.8399C22.5845 32.1089 22.827 32.2353 23.0926 32.1662C23.1581 32.1491 23.8756 31.6356 24.7538 30.9773C25.6041 30.34 26.3133 29.8185 26.33 29.8185C26.3467 29.8185 27.1337 30.4516 28.0789 31.2254C29.0242 31.9992 29.8688 32.6676 29.9558 32.7107C30.1798 32.8218 30.6813 32.8227 30.8888 32.7125C31.0859 32.6078 31.3008 32.3906 31.3903 32.2056C31.4974 31.9845 34.6666 18.4969 34.6667 18.2622C34.6668 18.0018 34.5468 17.7084 34.3667 17.5282C34.137 17.2986 33.9604 17.2223 33.6296 17.2095C33.4749 17.2036 33.3325 17.2054 33.3132 17.2136ZM32.0191 25.0093C31.1494 28.7081 30.4338 31.7395 30.4288 31.7456C30.41 31.769 24.9952 27.3153 25.0055 27.2849C25.0115 27.2673 26.2503 25.9618 27.7585 24.3839C29.2667 22.806 30.5309 21.4676 30.5677 21.4096C30.653 21.2754 30.6517 21.0318 30.5648 20.8799C30.5255 20.811 30.4315 20.7319 30.3284 20.6806C30.175 20.6043 30.1417 20.5996 30.0072 20.6356C29.9247 20.6576 28.0166 21.6984 25.767 22.9483C21.868 25.1146 21.6718 25.2191 21.5711 25.1826C21.2997 25.0843 17.7742 23.5257 17.7657 23.5003C17.7558 23.4706 33.5428 18.252 33.5799 18.2727C33.5912 18.279 32.8888 21.3105 32.0191 25.0093ZM27.0686 23.5518C25.5431 25.1293 23.7227 27.0639 23.6948 27.1373C23.6752 27.1889 23.5237 27.7065 23.3582 28.2875C23.1928 28.8685 23.0466 29.3556 23.0335 29.3699C23.0203 29.3842 22.85 28.6565 22.6551 27.7527C22.337 26.2782 22.3064 26.1059 22.3577 26.0746C22.4671 26.0076 27.2313 23.3559 27.2477 23.3528C27.2567 23.3511 27.1761 23.4407 27.0686 23.5518ZM25.4387 29.0809C25.4493 29.0982 25.108 29.3755 24.6801 29.6971C24.2398 30.028 23.9105 30.2537 23.9214 30.2171C23.932 30.1816 24.0529 29.7569 24.1901 29.2735C24.3274 28.7901 24.4477 28.3676 24.4575 28.3344C24.4715 28.2869 24.574 28.3554 24.9472 28.6619C25.2068 28.8751 25.428 29.0636 25.4387 29.0809Z" fill="white"/>
</svg>
