<svg width="51" height="50" viewBox="0 0 51 50" fill="none" xmlns="http://www.w3.org/2000/svg">
<rect x="0.666687" width="50" height="50" rx="11" fill="#AE00FF"/>
<path fill-rule="evenodd" clip-rule="evenodd" d="M22.8156 16.0232C20.9787 16.238 19.3722 17.2366 18.3452 18.802C17.8193 19.6034 17.4957 20.5302 17.3921 21.5308C17.3309 22.1223 17.3669 25.8038 17.4376 26.1799C17.698 27.5659 18.2764 28.642 19.2835 29.6141C19.6794 29.9962 20.232 30.3955 20.6702 30.6162L20.9093 30.7366L20.9226 31.9434C20.9374 33.2821 20.9513 33.3781 21.172 33.6679C21.5195 34.1241 22.1359 34.1087 22.6231 33.6316C22.7203 33.5364 23.2099 32.9741 23.711 32.3821L24.6221 31.3057L26.6501 31.2925L28.6781 31.2793L29.083 31.1874C30.2954 30.9122 31.2349 30.4068 32.1064 29.5609C33.0567 28.6384 33.6434 27.5307 33.8978 26.1785C33.9396 25.9563 33.9542 25.4765 33.967 23.9075C33.9839 21.8173 33.9675 21.4418 33.8313 20.8122C33.3568 18.6181 31.634 16.7978 29.4752 16.2097C28.733 16.0074 28.7924 16.0109 25.826 16.0013C24.3155 15.9964 22.9608 16.0063 22.8156 16.0232ZM28.8391 17.1379C30.6711 17.5365 32.1102 18.8243 32.6675 20.564C32.9019 21.2959 32.9033 21.3135 32.9033 23.6258C32.9033 25.5254 32.8971 25.7536 32.8373 26.0729C32.5738 27.4782 31.7454 28.7064 30.5408 29.4778C30.112 29.7524 29.494 30.0065 28.9115 30.1479C28.6254 30.2173 28.4803 30.2228 26.4246 30.2423C24.4537 30.2609 24.2309 30.2688 24.1314 30.3233C24.0707 30.3564 23.5637 30.9232 23.0047 31.5827L21.9881 32.7818L21.9705 31.4871C21.9544 30.3019 21.9474 30.1844 21.8877 30.0963C21.8451 30.0335 21.6821 29.9326 21.419 29.8061C20.924 29.5681 20.5987 29.3609 20.2172 29.0406C19.3717 28.3308 18.7677 27.3073 18.5113 26.1499C18.4337 25.7994 18.4319 25.7424 18.4319 23.661C18.4319 21.739 18.4382 21.4999 18.4961 21.2151C18.7897 19.7708 19.5595 18.6319 20.7785 17.8385C21.4123 17.426 22.13 17.1767 23.0092 17.0638C23.0673 17.0563 24.327 17.0534 25.8084 17.0574C28.3916 17.0643 28.5159 17.0676 28.8391 17.1379ZM25.1907 18.1607C24.8504 18.3766 24.865 18.8877 25.2166 19.0695C25.2826 19.1037 25.4867 19.1365 25.7508 19.1554C27.0606 19.2491 28.1188 19.7658 28.9902 20.7372C29.7006 21.5289 30.1738 22.7187 30.1744 23.7144C30.1745 24.0047 30.2443 24.1651 30.4246 24.2891C30.5883 24.4017 30.9028 24.3855 31.04 24.2573C31.2206 24.0886 31.2426 24.0012 31.2207 23.5387C31.083 20.6329 28.6509 18.2007 25.7908 18.1087C25.348 18.0944 25.287 18.0997 25.1907 18.1607ZM21.7733 19.9952C21.0704 20.1964 20.4599 20.924 20.204 21.8653C20.134 22.1229 20.1227 22.2478 20.1226 22.7631C20.1224 23.4453 20.1655 23.7079 20.3872 24.3748C20.9624 26.105 22.4342 27.7515 24.1712 28.6076C25.7676 29.3945 27.3353 29.4173 28.4363 28.6696C28.7069 28.4858 29.0931 28.0742 29.2085 27.8466C29.4732 27.3242 29.4375 26.6585 29.1182 26.1609C28.949 25.8973 28.2155 25.2027 27.9906 25.0932C27.2884 24.7513 26.521 24.8895 25.9669 25.4578C25.7517 25.6784 25.624 25.7499 25.4955 25.7217C25.4308 25.7074 25.1014 25.402 24.4946 24.7936C23.4201 23.7162 23.4618 23.8055 23.8381 23.3894C24.2902 22.8895 24.4195 22.5662 24.3924 22.003C24.3777 21.6995 24.3611 21.6297 24.245 21.3852C24.132 21.1474 24.053 21.0487 23.6673 20.6642C23.3725 20.3703 23.1578 20.1873 23.0362 20.1263C22.6369 19.9257 22.1811 19.8785 21.7733 19.9952ZM25.2627 20.2249C25.0757 20.308 24.9282 20.5228 24.9282 20.7121C24.9282 20.7532 24.9599 20.8522 24.9986 20.9322C25.099 21.1396 25.2596 21.2172 25.6467 21.2452C26.3003 21.2926 26.9061 21.5845 27.3668 22.0743C27.8016 22.5365 28.0223 23.0519 28.0779 23.7346C28.1046 24.0628 28.1596 24.1854 28.3309 24.2984C28.4649 24.3867 28.7494 24.3873 28.8825 24.2996C29.1082 24.1508 29.1587 23.9841 29.1157 23.5295C29.0694 23.0403 28.9674 22.6795 28.7497 22.235C28.2017 21.1157 27.1952 20.3932 25.9317 20.2119C25.6 20.1643 25.3897 20.1684 25.2627 20.2249ZM22.4855 21.0374C22.6402 21.102 23.1067 21.5456 23.2431 21.7577C23.3176 21.8737 23.3437 21.9576 23.3437 22.0811C23.3437 22.3251 23.2957 22.4179 23.0243 22.6977C22.8606 22.8665 22.7423 23.0292 22.6658 23.1909C22.5618 23.4103 22.5515 23.4624 22.5515 23.7666C22.5515 24.0721 22.5616 24.1224 22.6679 24.347C22.7733 24.5696 22.8771 24.6854 23.7595 25.5653C24.8052 26.6083 24.897 26.6785 25.3253 26.7641C25.5722 26.8135 25.888 26.77 26.139 26.652C26.2323 26.6081 26.4423 26.4484 26.6056 26.2972C26.9545 25.974 27.0874 25.92 27.3684 25.9874C27.5194 26.0237 27.5943 26.0761 27.8577 26.33C28.3077 26.7639 28.3922 26.9374 28.3084 27.2556C28.2256 27.5701 27.7194 27.9436 27.1816 28.0868C26.8807 28.167 26.1748 28.166 25.8141 28.0849C24.12 27.7037 22.4546 26.3357 21.65 24.6645C21.1007 23.5233 21.0085 22.4935 21.386 21.7133C21.5205 21.4354 21.8028 21.1143 21.9807 21.0369C22.1294 20.9723 22.3301 20.9725 22.4855 21.0374ZM25.2141 22.3458C25.0808 22.414 24.9742 22.5664 24.9424 22.7344C24.8908 23.0076 25.1132 23.2881 25.4108 23.3252C25.7669 23.3695 25.9298 23.519 25.9838 23.8505C26.0023 23.9642 26.0426 24.0956 26.0733 24.1425C26.2198 24.3661 26.5728 24.4356 26.7979 24.2853C27.0314 24.1293 27.0914 23.87 26.9868 23.4686C26.8692 23.0171 26.5383 22.6249 26.1029 22.4212C25.8058 22.2822 25.4051 22.2481 25.2141 22.3458Z" fill="white"/>
</svg>
