<svg width="51" height="50" viewBox="0 0 51 50" fill="none" xmlns="http://www.w3.org/2000/svg">
<rect x="0.666687" width="50" height="50" rx="11" fill="white"/>
<path fill-rule="evenodd" clip-rule="evenodd" d="M18.8828 19.4791C18.4864 19.5371 18.1086 19.7843 17.8859 20.1314C17.6517 20.4963 17.6601 20.3035 17.671 25.0979C17.6806 29.3366 17.6827 29.4517 17.7533 29.6223C17.9113 30.0044 18.2255 30.3115 18.6034 30.4532C18.77 30.5157 18.9041 30.5338 19.2355 30.5386L19.6562 30.5447L19.6745 26.5477L19.6928 22.5507L22.689 24.9276C24.3369 26.235 25.6949 27.2984 25.7069 27.2909C25.7188 27.2833 27.0291 26.272 28.6185 25.0435L31.5084 22.8097L31.5267 26.6772L31.545 30.5447L31.8733 30.5553C32.2936 30.569 32.6659 30.5118 32.9025 30.3971C33.1412 30.2815 33.4415 29.9642 33.5681 29.6943L33.6667 29.4838V25.0027V20.5215L33.5717 20.3203C33.4313 20.023 33.1742 19.7583 32.8899 19.6183C32.679 19.5145 32.6033 19.4975 32.2965 19.4852L31.9448 19.4711L28.9167 22.0387C27.2513 23.4509 25.869 24.5978 25.8452 24.5875C25.8213 24.5771 24.3967 23.4152 22.6793 22.0055L19.5567 19.4424L19.3138 19.447C19.1802 19.4494 18.9863 19.4639 18.8828 19.4791Z" fill="#FF6060"/>
</svg>
