<svg width="0" height="0" class="hidden">



    <symbol viewBox="0 0 11 6" xmlns="http://www.w3.org/2000/svg" id="faq_arrow">
        <path fill-rule="evenodd" clip-rule="evenodd" d="M0.0568788 1.09046C0.130568 1.25446 4.91715 5.82295 5.12205 5.92487C5.31216 6.01943 5.62785 6.02563 5.80641 5.93833C5.98875 5.84916 10.8228 1.24949 10.9197 1.07285C11.0957 0.752358 10.9725 0.319167 10.647 0.114056C10.4705 0.0027981 10.1465 -0.0333132 9.92576 0.0336595C9.8113 0.0683966 9.35748 0.481367 7.628 2.12462L5.47289 4.17231L3.35536 2.15699C1.88575 0.758348 1.19573 0.125153 1.10029 0.0876331C0.57877 -0.117407 -0.00408486 0.249763 2.13437e-05 0.780789C0.000835185 0.883309 0.0263969 1.02265 0.0568788 1.09046Z" fill="white"/>
    </symbol>


        
    <symbol viewBox="0 0 10 16" xmlns="http://www.w3.org/2000/svg" id="arrow_prev">
       <path d="M8.5 1L1.5 8L8.5 15" stroke-width="1.5"/>
    </symbol>


    
    <symbol viewBox="0 0 10 16" fill="none" xmlns="http://www.w3.org/2000/svg" id="arrow_next">
        <path d="M1.5 15L8.5 8L5 4.5L1.5 1" stroke-width="1.5"/>
        <defs>
            <linearGradient id="paint0_linear_4027_18" x1="3.08065" y1="15" x2="10.3605" y2="13.059" gradientUnits="userSpaceOnUse">
                <stop stop-color="#FFAD62"/>
                <stop offset="1" stop-color="#FFC188"/>
            </linearGradient>
        </defs>
    </symbol>




</svg>